<svg xmlns="http://www.w3.org/2000/svg" viewBox="0 0 60 60"><defs><style>.cls-1{fill:#f8d8cf;}.cls-10,.cls-2,.cls-6,.cls-7,.cls-8{fill:none;}.cls-10,.cls-2,.cls-4,.cls-5{stroke:#000;}.cls-10,.cls-2,.cls-4,.cls-5,.cls-6,.cls-7,.cls-8,.cls-9{stroke-miterlimit:10;}.cls-10,.cls-2,.cls-4,.cls-8,.cls-9{stroke-width:0.8px;}.cls-2{stroke-dasharray:2.4;}.cls-3{fill:#ffc30d;}.cls-4,.cls-5{fill:#d05d27;}.cls-5,.cls-6{stroke-width:2px;}.cls-6,.cls-7,.cls-8,.cls-9{stroke:#231f20;}.cls-7,.cls-9{stroke-linecap:round;}.cls-7{stroke-width:1.6px;}.cls-9{fill:#fff;}</style></defs><title>Asset 2</title><g id="Layer_2" data-name="Layer 2"><g id="Layer_1-2" data-name="Layer 1"><circle class="cls-1" cx="30" cy="30" r="30"/><ellipse class="cls-2" cx="30" cy="26.52" rx="14.21" ry="17.66"/><path class="cls-3" d="M38.64,18.83a10.44,10.44,0,0,0-8.55-4.11,11.68,11.68,0,0,0-3.23.41,9.89,9.89,0,0,1,5.55,3.7,8.19,8.19,0,0,1,1.23,7.36L28.81,41.3l6.21.05,4.84-15.17A8.19,8.19,0,0,0,38.64,18.83Z"/><rect class="cls-4" x="27.35" y="47.71" width="5.31" height="3.43" rx="1.4" ry="1.4"/><rect class="cls-5" x="23.3" y="40.44" width="13.4" height="7.86" rx="2.22" ry="2.22"/><path class="cls-6" d="M21.48,27.14l4,13.25,8.78.07,4.68-14.68c1.57-4.92-2.44-10.11-8.87-10.17h0c-6.42-.05-10.52,5.07-9,10Z"/><path class="cls-7" d="M23.79,22.64A8.24,8.24,0,0,0,23.58,24"/><path class="cls-7" d="M30.81,18.18a9.7,9.7,0,0,0-6.17,2.27"/><path class="cls-8" d="M31.94,40.44H28.06a.45.45,0,0,1-.45-.39l-1.8-13a.45.45,0,0,1,.68-.45l3.27,2a.45.45,0,0,0,.47,0l3.27-2a.45.45,0,0,1,.68.45l-1.8,13A.45.45,0,0,1,31.94,40.44Z"/><line class="cls-9" x1="23.3" y1="42.65" x2="26.92" y2="42.65"/><line class="cls-9" x1="23.3" y1="44.76" x2="27.72" y2="44.76"/><line class="cls-9" x1="23.3" y1="46.08" x2="27.72" y2="46.08"/><line class="cls-10" x1="44.53" y1="37.86" x2="51.19" y2="41.93"/><line class="cls-10" x1="40.77" y1="42.65" x2="46.28" y2="47.71"/><line class="cls-10" x1="15.47" y1="37.73" x2="8.81" y2="41.8"/><line class="cls-10" x1="19.23" y1="42.52" x2="13.72" y2="47.58"/></g></g></svg>