<svg xmlns="http://www.w3.org/2000/svg" viewBox="0 0 60 60"><defs><style>.cls-1{fill:#a9d8b0;}.cls-2{fill:#73848b;}.cls-3{fill:#a3b0b3;}.cls-11,.cls-12,.cls-15,.cls-4,.cls-5{fill:none;stroke-width:0.76px;}.cls-15,.cls-4{stroke:#231f20;}.cls-11,.cls-12,.cls-13,.cls-14,.cls-15,.cls-4,.cls-5,.cls-8{stroke-miterlimit:10;}.cls-13,.cls-14,.cls-5{stroke:#000;}.cls-11,.cls-14,.cls-15,.cls-5{stroke-linecap:round;}.cls-6{fill:#00a3c6;}.cls-7{fill:#80d2e9;}.cls-8,.cls-9{fill:#45b86d;}.cls-11,.cls-12,.cls-8{stroke:#050606;}.cls-13,.cls-14,.cls-8{stroke-width:0.57px;}.cls-10{fill:#050606;}.cls-13,.cls-14{fill:#fdfefe;}.cls-15{stroke-dasharray:0.76 2.28;}</style></defs><title>fl10</title><g id="Layer_2" data-name="Layer 2"><g id="Layer_1-2" data-name="Layer 1"><circle class="cls-1" cx="30" cy="30" r="30"/><path class="cls-2" d="M14.3,11.07a3.5,3.5,0,0,0-3.49,3.49v3.49h7V14.57A3.5,3.5,0,0,0,14.3,11.07Z"/><path class="cls-3" d="M14.3,11.07a3.45,3.45,0,0,0-.87.12A3.49,3.49,0,0,1,16,14.57v3.49h1.75V14.57A3.5,3.5,0,0,0,14.3,11.07Z"/><path class="cls-4" d="M14.3,11.45h0a3.11,3.11,0,0,1,3.11,3.11v3.11a0,0,0,0,1,0,0H11.18a0,0,0,0,1,0,0V14.57A3.11,3.11,0,0,1,14.3,11.45Z"/><path class="cls-2" d="M48.29,48a3.5,3.5,0,0,1-3.49-3.49V41h7v3.49A3.5,3.5,0,0,1,48.29,48Z"/><path class="cls-3" d="M48.29,48a3.45,3.45,0,0,1-.87-.12A3.49,3.49,0,0,0,50,44.53V41h1.75v3.49A3.5,3.5,0,0,1,48.29,48Z"/><path class="cls-4" d="M45.17,41.41H51.4a0,0,0,0,1,0,0v3.11a3.11,3.11,0,0,1-3.11,3.11h0a3.11,3.11,0,0,1-3.11-3.11V41.41a0,0,0,0,1,0,0Z"/><path class="cls-5" d="M14.3,11.45h0a2.37,2.37,0,0,1,2.37-2.37h7.69a6.45,6.45,0,0,1,6.45,6.45V43.48A6.53,6.53,0,0,0,37.34,50h8.58a2.37,2.37,0,0,0,2.37-2.37h0"/><circle class="cls-6" cx="30.81" cy="30.07" r="17.33"/><path class="cls-7" d="M29.9,13.81A16.84,16.84,0,0,0,23.73,15,16.89,16.89,0,0,1,34.39,47,16.89,16.89,0,0,0,29.9,13.81Z"/><path class="cls-8" d="M46,35.64H34.57a1.85,1.85,0,0,0-1.85,1.85h0a1.85,1.85,0,0,0,1.85,1.85h2.93a1.85,1.85,0,0,1,1.85,1.85v3.14l3.83-3.4Z"/><path class="cls-9" d="M22.78,15.76h6.69a2.6,2.6,0,0,1,2.6,2.6h0a2.3,2.3,0,0,1-2.3,2.3H24.42v3.1H36a2.31,2.31,0,0,1,2.31,2.31h0a2.17,2.17,0,0,1-2.17,2.17H21a4.22,4.22,0,0,1-4.22,4.22H15L14.3,28.1c.06-1.09.92-5.22,2.07-6.5Z"/><path class="cls-10" d="M30.81,15a15,15,0,1,1-15,15,15.07,15.07,0,0,1,15-15m0-2.28A17.33,17.33,0,1,0,48.14,30.07,17.33,17.33,0,0,0,30.81,12.74Z"/><path class="cls-11" d="M32.27,43.73A17.26,17.26,0,0,1,20.8,39.41"/><path class="cls-11" d="M19.42,37.38Q19,36.7,18.62,36"/><path class="cls-12" d="M22.78,15.76h6.69a2.6,2.6,0,0,1,2.6,2.6h0a2.3,2.3,0,0,1-2.3,2.3H24.42v3.1H36a2.31,2.31,0,0,1,2.31,2.31h0a2.17,2.17,0,0,1-2.17,2.17H21a4.22,4.22,0,0,1-4.22,4.22H15"/><path class="cls-12" d="M46,35.64H34.57a1.85,1.85,0,0,0-1.85,1.85h0a1.85,1.85,0,0,0,1.85,1.85h2.93a1.85,1.85,0,0,1,1.85,1.85v3.14"/><path class="cls-13" d="M35.32,20.15h12.2v-.42a.64.64,0,0,0-.7-.54h-.41V18.07c0-1.2-1.28-2.18-2.85-2.18h0c-.58-2-3.94-2.72-5.69-1.08a2.32,2.32,0,0,0-.75,1.71v1.75H37a1.56,1.56,0,0,0-1.72,1.31Z"/><line class="cls-14" x1="36.61" y1="21.15" x2="46.24" y2="21.15"/><path class="cls-13" d="M23.12,31.6h12.2v-.42a.64.64,0,0,0-.7-.54h-.41V29.52c0-1.2-1.28-2.18-2.85-2.18h0c-.58-2-3.94-2.72-5.69-1.08A2.32,2.32,0,0,0,24.92,28v1.75h-.08A1.56,1.56,0,0,0,23.12,31Z"/><line class="cls-14" x1="24.4" y1="32.59" x2="34.04" y2="32.59"/><line class="cls-5" x1="13.23" y1="17.68" x2="13.23" y2="19.45"/><line class="cls-5" x1="15.36" y1="17.68" x2="15.36" y2="19.45"/><path class="cls-15" d="M47.58,30.39c3.76,2.39,5.84,4.74,5.3,6.48-1,3.39-11.65,3.13-23.68-.58S8.26,26.82,9.31,23.42c.54-1.75,3.61-2.52,8.1-2.36"/></g></g></svg>