<svg xmlns="http://www.w3.org/2000/svg" viewBox="0 0 60 60"><defs><style>.cls-1{fill:#a9d8b0;}.cls-2{fill:#f1c449;stroke:#231f20;}.cls-11,.cls-12,.cls-13,.cls-14,.cls-2,.cls-7,.cls-8{stroke-miterlimit:10;}.cls-3{fill:#00a3c6;}.cls-4{fill:#8ed6e8;}.cls-5{fill:#46b86d;}.cls-6{fill:#050606;}.cls-11,.cls-12,.cls-14,.cls-7,.cls-8{fill:none;}.cls-12,.cls-13,.cls-14,.cls-7,.cls-8{stroke:#050606;}.cls-12,.cls-13,.cls-14,.cls-7{stroke-linecap:round;}.cls-13,.cls-9{fill:#90814c;}.cls-10{fill:#b49d5a;}.cls-11{stroke:#000;stroke-width:3px;}.cls-12{stroke-width:2px;}.cls-14{stroke-dasharray:1 2;}</style></defs><title>fl11</title><g id="Layer_2" data-name="Layer 2"><g id="Layer_1-2" data-name="Layer 1"><circle class="cls-1" cx="30" cy="30" r="30"/><rect class="cls-2" x="40.45" y="9.84" width="3.76" height="1.44" rx="0.72" ry="0.72" transform="translate(4.93 33.02) rotate(-45)"/><rect class="cls-2" x="18.69" y="43.73" width="3.76" height="1.44" rx="0.72" ry="0.72" transform="translate(-25.41 27.56) rotate(-45)"/><circle class="cls-3" cx="29.87" cy="26.72" r="16.88"/><path class="cls-4" d="M29,11a16.39,16.39,0,0,0-6,1.14A16.45,16.45,0,0,1,33.41,43.29,16.45,16.45,0,0,0,29,11Z"/><path class="cls-5" d="M44.63,32.14H33.53a1.8,1.8,0,0,0-1.8,1.8h0a1.8,1.8,0,0,0,1.8,1.8h2.85a1.8,1.8,0,0,1,1.8,1.8V40.6L41.9,37.3Z"/><path class="cls-5" d="M22.05,12.78h6.52a2.53,2.53,0,0,1,2.53,2.53h0a2.24,2.24,0,0,1-2.24,2.24H23.64v3H34.89a2.25,2.25,0,0,1,2.25,2.25h0A2.11,2.11,0,0,1,35,24.93H20.29A4.11,4.11,0,0,1,16.18,29H14.42l.38-6.49c.06-1.06.11-2.55,1-3.47Z"/><path class="cls-6" d="M29.87,11.84A14.88,14.88,0,1,1,15,26.72,14.89,14.89,0,0,1,29.87,11.84m0-2A16.87,16.87,0,1,0,46.74,26.72,16.87,16.87,0,0,0,29.87,9.84Z"/><path class="cls-7" d="M31.28,40a16.81,16.81,0,0,1-11.17-4.21"/><path class="cls-7" d="M18.77,33.84q-.42-.67-.78-1.38"/><path class="cls-8" d="M22.05,12.78h6.52a2.53,2.53,0,0,1,2.53,2.53h0a2.24,2.24,0,0,1-2.24,2.24H23.64v3H34.89a2.25,2.25,0,0,1,2.25,2.25h0A2.11,2.11,0,0,1,35,24.93H20.29A4.11,4.11,0,0,1,16.18,29H14.42"/><path class="cls-8" d="M44.63,32.14H33.53a1.8,1.8,0,0,0-1.8,1.8h0a1.8,1.8,0,0,0,1.8,1.8h2.85a1.8,1.8,0,0,1,1.8,1.8V40.6"/><path class="cls-9" d="M36.06,50.28l-.34-1.44A1.12,1.12,0,0,0,34.63,48H25.37a1.12,1.12,0,0,0-1.09.87l-.34,1.44a1.12,1.12,0,0,1-1.09.87h0a1.12,1.12,0,0,0-1.12,1.12v.92a1.12,1.12,0,0,0,1.12,1.12H37.16a1.12,1.12,0,0,0,1.12-1.12v-.92a1.12,1.12,0,0,0-1.12-1.12h0A1.12,1.12,0,0,1,36.06,50.28Z"/><path class="cls-10" d="M24.67,53.19v-.92a1.12,1.12,0,0,1,1.12-1.12,1.12,1.12,0,0,0,1.09-.87l.34-1.44A1.12,1.12,0,0,1,28.32,48h-3a1.12,1.12,0,0,0-1.09.87l-.34,1.44a1.12,1.12,0,0,1-1.09.87,1.12,1.12,0,0,0-1.12,1.12v.92a1.12,1.12,0,0,0,1.12,1.12h3A1.12,1.12,0,0,1,24.67,53.19Z"/><line class="cls-11" x1="29.92" y1="44.85" x2="29.87" y2="47.98"/><path class="cls-12" d="M19.89,42.51a18.68,18.68,0,1,0,19.9-31.63"/><line class="cls-13" x1="24.91" y1="51.15" x2="32.29" y2="51.15"/><line class="cls-13" x1="33.52" y1="51.15" x2="34.39" y2="51.15"/><path class="cls-6" d="M29.87,11.84A14.88,14.88,0,1,1,15,26.72,14.89,14.89,0,0,1,29.87,11.84m0-2A16.87,16.87,0,1,0,46.74,26.72,16.87,16.87,0,0,0,29.87,9.84Z"/><circle class="cls-14" cx="30" cy="26.72" r="18.84"/></g></g></svg>