<svg xmlns="http://www.w3.org/2000/svg" viewBox="0 0 60 60"><defs><style>.cls-1{fill:#99d9ec;}.cls-2,.cls-5,.cls-6{fill:none;stroke-miterlimit:10;}.cls-2{stroke:#000;stroke-dasharray:3;}.cls-2,.cls-6{stroke-linecap:round;}.cls-3{fill:#f8981d;}.cls-4{fill:#f9c995;}.cls-5,.cls-6{stroke:#050606;}.cls-5{stroke-width:2px;}.cls-7{fill:#009abd;}</style></defs><title>Asset 1</title><g id="Layer_2" data-name="Layer 2"><g id="Layer_1-2" data-name="Layer 1"><circle class="cls-1" cx="30" cy="30" r="30"/><circle class="cls-2" cx="29.6" cy="28.83" r="21.04"/><path class="cls-3" d="M12.39,12.73H37.74s0,29.09-12.67,29.09S12.39,12.73,12.39,12.73Z"/><path class="cls-4" d="M35.29,12.73s0,27.08-11.4,29a7.75,7.75,0,0,0,1.28.11c12.67,0,12.67-29.09,12.67-29.09Z"/><path class="cls-5" d="M12.39,12.73H37.74s0,29.09-12.67,29.09S12.39,12.73,12.39,12.73Z"/><path class="cls-6" d="M16,20.78c-.21-2.8-.21-4.69-.21-4.69h5.41"/><line class="cls-6" x1="23.82" y1="16.09" x2="25.64" y2="16.09"/><path class="cls-6" d="M17.13,24.72s3-3.6,6.3,0"/><path class="cls-6" d="M26.45,24.72s3-3.6,6.3,0"/><path class="cls-6" d="M30.87,30.56s-5.53,8.56-11.61,0"/><path class="cls-7" d="M26,23.12H51.33s0,29.09-12.67,29.09S26,23.12,26,23.12Z"/><path class="cls-1" d="M48.88,23.12s0,27.08-11.4,29a7.75,7.75,0,0,0,1.28.11c12.67,0,12.67-29.09,12.67-29.09Z"/><path class="cls-5" d="M26,23.12H51.33s0,29.09-12.67,29.09S26,23.12,26,23.12Z"/><path class="cls-6" d="M29.6,31.17c-.21-2.8-.21-4.69-.21-4.69h5.41"/><line class="cls-6" x1="37.4" y1="26.49" x2="39.23" y2="26.49"/><path class="cls-6" d="M30.72,33.51s3,3.6,6.3,0"/><path class="cls-6" d="M40,33.51s3,3.6,6.3,0"/><path class="cls-6" d="M44.46,44.75s-5.53-8.56-11.61,0"/></g></g></svg>