<svg xmlns="http://www.w3.org/2000/svg" viewBox="0 0 60 60"><defs><style>.cls-1{fill:#f6f083;}.cls-2,.cls-5{fill:#73848b;}.cls-3{fill:#9aadb3;}.cls-4,.cls-6,.cls-9{fill:none;}.cls-4,.cls-5,.cls-6,.cls-7,.cls-9{stroke:#231f20;}.cls-4,.cls-5,.cls-6,.cls-9{stroke-miterlimit:10;}.cls-4,.cls-5{stroke-width:1.9px;}.cls-6,.cls-9{stroke-linecap:round;}.cls-6,.cls-7,.cls-9{stroke-width:0.95px;}.cls-7,.cls-8{fill:#a1adb0;}.cls-7{stroke-linejoin:round;}.cls-9{stroke-dasharray:1.9;}</style></defs><title>fl3</title><g id="Layer_2" data-name="Layer 2"><g id="Layer_1-2" data-name="Layer 1"><circle class="cls-1" cx="30" cy="30" r="30"/><rect class="cls-2" x="9.37" y="26.53" width="28.57" height="20.92" rx="6.97" ry="6.97"/><path class="cls-3" d="M31.34,26.17H26.15a7.1,7.1,0,0,1,7.1,7.1v7.1a7.1,7.1,0,0,1-7.1,7.1h5.19a7.1,7.1,0,0,0,7.1-7.1v-7.1A7.1,7.1,0,0,0,31.34,26.17Z"/><rect class="cls-4" x="9.83" y="26.89" width="28.15" height="19.85" rx="6.14" ry="6.14"/><circle class="cls-5" cx="16.81" cy="19.53" r="6.98"/><circle class="cls-5" cx="30.89" cy="19.53" r="6.98"/><polygon class="cls-5" points="49.53 42.64 37.87 40.7 37.87 32.92 49.53 30.98 49.53 42.64"/><path class="cls-6" d="M13.93,16.87a4.2,4.2,0,0,0-.6,4.31"/><path class="cls-6" d="M28.15,16.87a4.2,4.2,0,0,0-.6,4.31"/><path class="cls-6" d="M14,34.63v5.28a3,3,0,0,0,3,3h5.19"/><line class="cls-6" x1="23.8" y1="42.95" x2="26.02" y2="42.95"/><rect class="cls-7" x="18.37" y="33.03" width="11.06" height="5.31" rx="2.33" ry="2.33"/><circle class="cls-8" cx="30.89" cy="19.53" r="2.2"/><circle class="cls-8" cx="16.81" cy="19.53" r="2.2"/><path class="cls-9" d="M35.69,13A15.24,15.24,0,0,1,49.53,39.16"/></g></g></svg>