<svg xmlns="http://www.w3.org/2000/svg" viewBox="0 0 60 60"><defs><style>.cls-1{fill:#a9d8b0;}.cls-2{fill:#00b79c;}.cls-2,.cls-4,.cls-5,.cls-6{stroke:#231f20;}.cls-2,.cls-3,.cls-4,.cls-5,.cls-6{stroke-linejoin:round;}.cls-2,.cls-3{stroke-width:2px;}.cls-3,.cls-5,.cls-6{fill:none;stroke-linecap:round;}.cls-3{stroke:#000;}.cls-4{fill:#89d0ca;}.cls-4,.cls-5,.cls-6{stroke-width:0.8px;}.cls-6{stroke-dasharray:1.6 2;}</style></defs><title>fl4</title><g id="Layer_2" data-name="Layer 2"><g id="Layer_1-2" data-name="Layer 1"><circle class="cls-1" cx="30" cy="30" r="30"/><rect class="cls-2" x="17.75" y="17.83" width="24.51" height="24.51"/><line class="cls-3" x1="23.22" y1="42.34" x2="23.22" y2="47.26"/><line class="cls-3" x1="26.61" y1="42.34" x2="26.61" y2="47.26"/><line class="cls-3" x1="30" y1="42.34" x2="30" y2="47.26"/><line class="cls-3" x1="33.39" y1="42.34" x2="33.39" y2="47.26"/><line class="cls-3" x1="36.78" y1="42.34" x2="36.78" y2="47.26"/><line class="cls-3" x1="23.22" y1="12.91" x2="23.22" y2="17.83"/><line class="cls-3" x1="26.61" y1="12.91" x2="26.61" y2="17.83"/><line class="cls-3" x1="30" y1="12.91" x2="30" y2="17.83"/><line class="cls-3" x1="33.39" y1="12.91" x2="33.39" y2="17.83"/><line class="cls-3" x1="36.78" y1="12.91" x2="36.78" y2="17.83"/><line class="cls-3" x1="42.25" y1="36.87" x2="47.17" y2="36.87"/><line class="cls-3" x1="42.25" y1="33.48" x2="47.17" y2="33.48"/><line class="cls-3" x1="42.25" y1="30.09" x2="47.17" y2="30.09"/><line class="cls-3" x1="42.25" y1="26.69" x2="47.17" y2="26.69"/><line class="cls-3" x1="42.25" y1="23.3" x2="47.17" y2="23.3"/><line class="cls-3" x1="12.83" y1="36.87" x2="17.75" y2="36.87"/><line class="cls-3" x1="12.83" y1="33.48" x2="17.75" y2="33.48"/><line class="cls-3" x1="12.83" y1="30.09" x2="17.75" y2="30.09"/><line class="cls-3" x1="12.83" y1="26.69" x2="17.75" y2="26.69"/><line class="cls-3" x1="12.83" y1="23.3" x2="17.75" y2="23.3"/><rect class="cls-4" x="22.81" y="22.9" width="14.37" height="14.37"/><polyline class="cls-4" points="22.81 26.17 28.26 26.17 31.35 28.51"/><line class="cls-4" x1="37.19" y1="31.12" x2="27.89" y2="31.12"/><polyline class="cls-4" points="22.81 35.42 31.35 35.42 34.34 33.48"/><circle class="cls-4" cx="31.84" cy="28.77" r="0.94"/><circle class="cls-4" cx="34.75" cy="33.48" r="0.94"/><circle class="cls-4" cx="27.89" cy="31.12" r="0.94"/><polyline class="cls-5" points="32.77 20.71 38.98 20.71 38.98 27.83"/><line class="cls-5" x1="38.98" y1="29.25" x2="38.98" y2="30.75"/><circle class="cls-6" cx="30" cy="30" r="22.8"/></g></g></svg>