<svg xmlns="http://www.w3.org/2000/svg" viewBox="0 0 60 60"><defs><style>.cls-1{fill:#f8d6cf;}.cls-2,.cls-6{fill:#45b86d;}.cls-3,.cls-5{fill:#7ec67f;}.cls-10,.cls-4,.cls-7,.cls-8{fill:none;}.cls-4,.cls-5,.cls-6,.cls-7,.cls-8{stroke:#231f20;}.cls-10,.cls-4,.cls-5,.cls-6,.cls-7,.cls-8{stroke-miterlimit:10;}.cls-4{stroke-width:2px;}.cls-10,.cls-5,.cls-6,.cls-7,.cls-8{stroke-width:0.75px;}.cls-10,.cls-7,.cls-8{stroke-linecap:round;}.cls-8{stroke-dasharray:1.5 1.5;}.cls-9{fill:#231f20;}.cls-10{stroke:#050606;}</style></defs><title>fl9</title><g id="Layer_2" data-name="Layer 2"><g id="Layer_1-2" data-name="Layer 1"><circle class="cls-1" cx="30" cy="30" r="30"/><rect class="cls-2" x="13.93" y="23.33" width="30.94" height="14.84"/><rect class="cls-3" x="41.21" y="23.33" width="4.12" height="14.84"/><rect class="cls-4" x="13.93" y="23.33" width="30.94" height="14.84"/><path class="cls-5" d="M38.51,33.31V28.18a1.81,1.81,0,0,1-1.81-1.81H22.09a1.81,1.81,0,0,1-1.81,1.81v5.13a1.81,1.81,0,0,1,1.81,1.81H36.7A1.81,1.81,0,0,1,38.51,33.31Z"/><circle class="cls-6" cx="29.85" cy="30.75" r="2.26"/><line class="cls-7" x1="16.41" y1="25.63" x2="16.41" y2="33.73"/><line class="cls-7" x1="16.41" y1="34.81" x2="16.41" y2="35.73"/><path class="cls-8" d="M15.45,19.88c4.22-3,16.6-10,29.42,1.19"/><polygon class="cls-9" points="16.6 20.74 13.93 21.07 14.97 18.59 16.6 20.74"/><path class="cls-8" d="M43.8,41.62c-4.22,3-16.6,10-29.42-1.19"/><polygon class="cls-9" points="42.66 40.75 45.33 40.42 44.28 42.9 42.66 40.75"/><line class="cls-10" x1="43.76" y1="13.06" x2="42.26" y2="13.06"/><line class="cls-10" x1="44.87" y1="14.17" x2="44.87" y2="15.67"/><line class="cls-10" x1="45.98" y1="13.06" x2="47.48" y2="13.06"/><line class="cls-10" x1="44.87" y1="10.45" x2="44.87" y2="11.95"/><line class="cls-10" x1="13.59" y1="47.69" x2="12.52" y2="47.69"/><line class="cls-10" x1="14.38" y1="48.48" x2="14.38" y2="49.55"/><line class="cls-10" x1="15.18" y1="47.69" x2="16.24" y2="47.69"/><line class="cls-10" x1="14.38" y1="45.83" x2="14.38" y2="46.89"/></g></g></svg>