<svg xmlns="http://www.w3.org/2000/svg" viewBox="0 0 60 60"><defs><style>.cls-1{fill:#f7f3dc;}.cls-2{fill:#606161;}.cls-3{fill:#898989;}.cls-12,.cls-4,.cls-7{fill:none;}.cls-11,.cls-12,.cls-4,.cls-7,.cls-8,.cls-9{stroke:#000;}.cls-10,.cls-11,.cls-12,.cls-4,.cls-5,.cls-7,.cls-8,.cls-9{stroke-miterlimit:10;}.cls-4{stroke-width:1.6px;}.cls-10,.cls-5{fill:#f8e937;stroke:#231f20;}.cls-6{fill:#f9f4cd;}.cls-11,.cls-12,.cls-7,.cls-8{stroke-linecap:round;stroke-width:0.8px;}.cls-11,.cls-8,.cls-9{fill:#818182;}.cls-9{stroke-width:2.4px;}.cls-10{stroke-width:2px;}.cls-11{stroke-dasharray:0 4;}.cls-12{stroke-dasharray:0.8 1.6;}</style></defs><title>fly10</title><g id="Layer_2" data-name="Layer 2"><g id="Layer_1-2" data-name="Layer 1"><circle class="cls-1" cx="30" cy="30" r="30"/><path class="cls-2" d="M30.22,17.25a7.47,7.47,0,0,0-7.46,7.46v7.73a7.46,7.46,0,0,0,14.91,0V24.71A7.47,7.47,0,0,0,30.22,17.25Z"/><path class="cls-3" d="M30.22,17.25a7.42,7.42,0,0,0-1.94.27,7.46,7.46,0,0,1,5.51,7.19v7.73a7.46,7.46,0,0,1-5.51,7.19,7.43,7.43,0,0,0,9.4-7.19V24.71A7.47,7.47,0,0,0,30.22,17.25Z"/><rect class="cls-4" x="23.55" y="17.82" width="13.35" height="21.51" rx="6.67" ry="6.67"/><path class="cls-5" d="M23,28.69v4.09a7.26,7.26,0,1,0,14.52,0V28.69Z"/><path class="cls-6" d="M31.29,28.69v4.09a7.26,7.26,0,0,1-4.16,6.56,7.24,7.24,0,0,0,10.35-6.56V28.69Z"/><path class="cls-4" d="M23.55,29.41v3.24a6.67,6.67,0,0,0,6.67,6.67h0a6.67,6.67,0,0,0,6.67-6.67V29.41Z"/><path class="cls-7" d="M25.62,33.1a5.09,5.09,0,0,0,4,4"/><line class="cls-8" x1="25.62" y1="31.8" x2="25.62" y2="31.35"/><line class="cls-9" x1="30.23" y1="39.32" x2="30.23" y2="43.43"/><path class="cls-10" d="M23.75,44.2H36.7a1.81,1.81,0,0,1,1.75,1.35l.35,1.33A1.81,1.81,0,0,1,37,49.16H23.4a1.81,1.81,0,0,1-1.75-2.28L22,45.55A1.81,1.81,0,0,1,23.75,44.2Z"/><line class="cls-8" x1="23.93" y1="47.42" x2="36.52" y2="47.42"/><line class="cls-11" x1="30.36" y1="21.39" x2="30.36" y2="29.44"/><line class="cls-11" x1="27.62" y1="22.56" x2="27.62" y2="29.44"/><line class="cls-11" x1="33.11" y1="22.56" x2="33.11" y2="29.44"/><path class="cls-12" d="M15.21,44.69a22.51,22.51,0,0,1-2.09-31.84"/><path class="cls-12" d="M46.88,12.84a22.51,22.51,0,0,1-2.1,31.84"/><path class="cls-12" d="M18.4,41.79a18.23,18.23,0,0,1-2.47-25.67"/><path class="cls-12" d="M43.85,15.87a18.23,18.23,0,0,1-2.1,25.79"/><path class="cls-12" d="M22.1,37.8a12.8,12.8,0,0,1-2.26-17.87"/><path class="cls-12" d="M39.88,19.58a12.8,12.8,0,0,1-2,18.22"/></g></g></svg>