<svg xmlns="http://www.w3.org/2000/svg" viewBox="0 0 60 60"><defs><style>.cls-1{fill:#f7f3dc;}.cls-2{fill:#f8e937;}.cls-3{fill:#898989;}.cls-4,.cls-5,.cls-6{fill:none;stroke:#050606;stroke-linecap:round;stroke-miterlimit:10;}.cls-4{stroke-width:2px;}.cls-6{stroke-dasharray:3 3;}</style></defs><title>fly3</title><g id="Layer_2" data-name="Layer 2"><g id="Layer_1-2" data-name="Layer 1"><circle class="cls-1" cx="30" cy="30" r="30"/><path class="cls-2" d="M37.36,43.42c-6.28,2.25-16.13,2.89-21.2,3.06l-.34.59a2.89,2.89,0,0,0,2.5,4.34H37a2.89,2.89,0,0,0,2.5-4.34Z"/><path class="cls-3" d="M37.36,43.42c-.81.29-1.68.55-2.6.79L37,47c1.27,1.56.62,3.38-1.09,4.41h1a2.89,2.89,0,0,0,2.5-4.34Z"/><path class="cls-4" d="M39.47,47.07,31.79,33.77V24.61h.76a1.68,1.68,0,0,0,1.68-1.68V21.4a1.68,1.68,0,0,0-1.68-1.68H22.75a1.68,1.68,0,0,0-1.68,1.68v1.53a1.68,1.68,0,0,0,1.68,1.68h.76v9.16L15.83,47.07a2.89,2.89,0,0,0,2.5,4.34H37A2.89,2.89,0,0,0,39.47,47.07Z"/><line class="cls-4" x1="23.51" y1="24.61" x2="25.86" y2="24.61"/><line class="cls-5" x1="23.51" y1="27.93" x2="26.03" y2="27.93"/><line class="cls-5" x1="23.51" y1="29.92" x2="27.86" y2="29.92"/><line class="cls-5" x1="23.51" y1="31.9" x2="26.03" y2="31.9"/><path class="cls-5" d="M16.66,36.44q-.55-.51-1-1.07"/><path class="cls-6" d="M13.84,33A16.1,16.1,0,1,1,39.92,35.1"/><path class="cls-5" d="M38.9,36.2q-.54.52-1.12,1"/><path class="cls-3" d="M29.22,42.85a2,2,0,0,1-2-2,2,2,0,0,1,.24-.94,2,2,0,1,0,2.68,2.68A2,2,0,0,1,29.22,42.85Z"/><circle class="cls-5" cx="28.41" cy="41.67" r="1.99"/><path class="cls-3" d="M31.88,16a2.65,2.65,0,0,1-2.24-4.08,2.65,2.65,0,1,0,3.66,3.66A2.64,2.64,0,0,1,31.88,16Z"/><circle class="cls-5" cx="31.07" cy="14.18" r="2.66"/><line class="cls-5" x1="44.42" y1="13.08" x2="42.81" y2="13.08"/><line class="cls-5" x1="45.63" y1="14.29" x2="45.63" y2="15.9"/><line class="cls-5" x1="46.83" y1="13.08" x2="48.45" y2="13.08"/><line class="cls-5" x1="45.63" y1="10.26" x2="45.63" y2="11.88"/></g></g></svg>