<svg xmlns="http://www.w3.org/2000/svg" viewBox="0 0 60 60"><defs><style>.cls-1{fill:#f7f3dc;}.cls-2{fill:#f8e937;}.cls-3{fill:#898989;}.cls-4,.cls-5,.cls-6,.cls-7{fill:none;stroke-miterlimit:10;}.cls-4,.cls-5,.cls-6{stroke:#000;}.cls-4,.cls-5{stroke-width:2px;}.cls-5,.cls-6,.cls-7{stroke-linecap:round;}.cls-7{stroke:#231f20;stroke-dasharray:3;}</style></defs><title>fly4</title><g id="Layer_2" data-name="Layer 2"><g id="Layer_1-2" data-name="Layer 1"><circle class="cls-1" cx="30" cy="30" r="30"/><path class="cls-2" d="M36.16,10.55H33.78a12.17,12.17,0,0,0-11.39,8L18.92,30.61A2.17,2.17,0,0,0,21,33.37h1.37v3.16a4.1,4.1,0,0,0,4.24,4.1l2.82-.09a.62.62,0,0,1,.64.62v8.29H46.6V21A10.45,10.45,0,0,0,36.16,10.55Z"/><path class="cls-3" d="M26.65,40.54l-.9,0a4.2,4.2,0,0,0,.86.06H27A.65.65,0,0,0,26.65,40.54Z"/><path class="cls-3" d="M36.16,10.55H33.55A10.44,10.44,0,0,1,43.82,21V49.45H46.6V21A10.45,10.45,0,0,0,36.16,10.55Z"/><path class="cls-4" d="M12.74,48.25V21A9.23,9.23,0,0,1,22,11.75h2.39a10.93,10.93,0,0,1,10.27,7.18l3.44,12a1,1,0,0,1-.93,1.24H34.57v4.36a2.9,2.9,0,0,1-3,2.9l-2.82-.09a1.82,1.82,0,0,0-1.88,1.82v7.09Z"/><line class="cls-5" x1="16.28" y1="34.92" x2="16.28" y2="33.69"/><polyline class="cls-5" points="19.44 44.66 16.28 44.66 16.28 38.13"/><path class="cls-6" d="M25.78,23.67a3.28,3.28,0,0,0,3.88,0"/><polyline class="cls-7" points="34.82 36.53 51.27 36.53 51.27 16.69 35.12 16.64"/></g></g></svg>