<svg xmlns="http://www.w3.org/2000/svg" viewBox="0 0 60 60"><defs><style>.cls-1{fill:#f7f3dc;}.cls-2{fill:#898989;}.cls-2,.cls-6,.cls-8{stroke:#231f20;}.cls-10,.cls-11,.cls-12,.cls-2,.cls-3,.cls-4,.cls-5,.cls-6,.cls-7,.cls-8{stroke-miterlimit:10;}.cls-3{fill:#f9f9fa;}.cls-10,.cls-11,.cls-12,.cls-3,.cls-4,.cls-5,.cls-7,.cls-9{stroke:#000;}.cls-10,.cls-11,.cls-12,.cls-3,.cls-4,.cls-5,.cls-9{stroke-width:0.75px;}.cls-11,.cls-4{fill:#ddd;}.cls-10,.cls-11,.cls-12,.cls-4,.cls-5,.cls-9{stroke-linecap:round;}.cls-5{fill:#fdfefe;}.cls-6{fill:#f8e937;}.cls-12,.cls-7,.cls-9{fill:none;}.cls-7{stroke-width:1.5px;}.cls-8{fill:#606161;}.cls-9{stroke-linejoin:round;}.cls-10{fill:#e43725;}.cls-11,.cls-12{stroke-dasharray:1.5;}</style></defs><title>fly6</title><g id="Layer_2" data-name="Layer 2"><g id="Layer_1-2" data-name="Layer 1"><circle class="cls-1" cx="30" cy="30" r="30"/><rect class="cls-2" x="13.46" y="25.35" width="2.85" height="2.22"/><polygon class="cls-3" points="24.37 11.64 19.88 16.13 19.88 29.41 35.4 29.41 35.4 11.64 24.37 11.64"/><polyline class="cls-4" points="21.35 16.53 24.72 16.53 24.72 13.03"/><line class="cls-5" x1="22.96" y1="18.78" x2="33.82" y2="18.78"/><line class="cls-5" x1="26.94" y1="15.43" x2="33.82" y2="15.43"/><line class="cls-5" x1="22.96" y1="22.13" x2="33.82" y2="22.13"/><path class="cls-6" d="M41,33.69V30.8a1.89,1.89,0,0,0-1.89-1.89H17.4a1.89,1.89,0,0,0-1.89,1.89v2.91a1.89,1.89,0,0,1-.12.66l-3.23,8.71a1.89,1.89,0,0,0-.12.66v2.74a1.89,1.89,0,0,0,1.89,1.89H42.85a1.89,1.89,0,0,0,1.89-1.89V43.75a1.89,1.89,0,0,0-.13-.69l-3.43-8.68A1.89,1.89,0,0,1,41,33.69Z"/><rect class="cls-2" x="35.92" y="25.03" width="5.31" height="3.44"/><rect class="cls-2" x="15.3" y="25.03" width="23.28" height="3.44"/><polyline class="cls-7" points="41.23 26.74 43.76 26.74 43.76 21.93"/><circle class="cls-8" cx="43.76" cy="20.54" r="2.05"/><rect class="cls-3" x="21.86" y="43.02" width="13.07" height="2.11" rx="1.06" ry="1.06"/><circle class="cls-3" cx="21.64" cy="35.74" r="1.04"/><circle class="cls-3" cx="25.02" cy="35.74" r="1.04"/><circle class="cls-3" cx="28.39" cy="35.74" r="1.04"/><circle class="cls-3" cx="31.77" cy="35.74" r="1.04"/><circle class="cls-3" cx="35.14" cy="35.74" r="1.04"/><circle class="cls-3" cx="21.64" cy="39.39" r="1.04"/><circle class="cls-3" cx="25.02" cy="39.39" r="1.04"/><circle class="cls-3" cx="28.39" cy="39.39" r="1.04"/><circle class="cls-3" cx="31.77" cy="39.39" r="1.04"/><circle class="cls-3" cx="35.14" cy="39.39" r="1.04"/><path class="cls-9" d="M18.39,34.61,15.45,42.1a2.19,2.19,0,0,0-.15.8v.93a.92.92,0,0,0,.92.92h3.25"/><line class="cls-10" x1="18.46" y1="33.14" x2="18.46" y2="31.12"/><line class="cls-10" x1="36.18" y1="44.75" x2="41.7" y2="44.75"/><rect class="cls-2" x="11.5" y="23.99" width="2.15" height="4.94"/><line class="cls-4" x1="18.46" y1="27.04" x2="34.11" y2="27.04"/><line class="cls-4" x1="35.14" y1="27.04" x2="36.18" y2="27.04"/><line class="cls-11" x1="16.31" y1="21.93" x2="9.39" y2="19.64"/><line class="cls-11" x1="17.74" y1="19.23" x2="12.05" y2="14.78"/><path class="cls-12" d="M31.35,14.39A14.71,14.71,0,1,1,37.9,42.28"/></g></g></svg>