<svg xmlns="http://www.w3.org/2000/svg" viewBox="0 0 27.07 34.59"><defs><style>.cls-1{fill:#fff;}.cls-2{stroke:#fff;stroke-miterlimit:10;stroke-width:0.49px;}</style></defs><title>g12</title><g id="Layer_2" data-name="Layer 2"><g id="Layer_1-2" data-name="Layer 1"><path class="cls-1" d="M7.41,34.35V29.41a3.4,3.4,0,0,0-1.09-2.5L4.8,25.51a14.85,14.85,0,0,1-1.51-2.79C2.52,21.1,2.23,20.53,2,20.42L.45,19.8a.35.35,0,0,1-.18-.49s2.6-5.52,4-8.48A7.72,7.72,0,0,1,7.6,7.29a10.06,10.06,0,0,1,4.76-1.19c5.94,0,10.77,5.17,10.77,11.53a12.08,12.08,0,0,1-1.75,6.28l0,.06h0l-2.5,4.36a5.93,5.93,0,0,0-.79,3v3.05Z"/><path d="M12.36,6.34c5.81,0,10.54,5.07,10.54,11.3a11.85,11.85,0,0,1-1.71,6.16l-.07.12h0l-2.47,4.3a6.16,6.16,0,0,0-.82,3.07v2.82H7.64V29.41a3.63,3.63,0,0,0-1.17-2.67L5,25.34A15.71,15.71,0,0,1,3.5,22.63C2.63,20.79,2.39,20.34,2,20.2L.54,19.59a.11.11,0,0,1-.07-.07.13.13,0,0,1,0-.11c0-.06,2.61-5.55,4-8.47A7.48,7.48,0,0,1,7.71,7.5a9.84,9.84,0,0,1,4.65-1.16m0-.47A10.36,10.36,0,0,0,7.49,7.09a8,8,0,0,0-3.41,3.65c-1.42,3-4,8.48-4,8.48a.58.58,0,0,0,.3.81l1.51.62c.43.17,2,4.39,2.77,5.05l1.52,1.4a3.16,3.16,0,0,1,1,2.32v5.18H18.29V31.3A5.69,5.69,0,0,1,19,28.46l2.54-4.41h0a12.3,12.3,0,0,0,1.78-6.4c0-6.5-4.93-11.77-11-11.77Z"/><path class="cls-2" d="M14.63,4.66"/><path class="cls-1" d="M14.61,4.65h0l0-.07Z"/><path d="M14.65,4.59l0,.07h0l0-.07Z"/><path class="cls-1" d="M19.06,19.88a1.61,1.61,0,0,1-1.61-1.5h3.21A1.62,1.62,0,0,1,19.06,19.88Z"/><path d="M20.43,18.59a1.41,1.41,0,0,1-2.74,0h2.74m.44-.41H17.24v.09a1.82,1.82,0,0,0,3.63,0v-.09Z"/><path class="cls-1" d="M17.07,14.62A19.39,19.39,0,0,0,15.31,9.8a4.22,4.22,0,0,1-.47-2,4.38,4.38,0,0,1,4-4.14h.17a4.22,4.22,0,0,1,3.69,6.26A16.21,16.21,0,0,0,21,14.62Z"/><path d="M19.06,3.85a4,4,0,0,1,3.51,6,16.49,16.49,0,0,0-1.75,4.61H17.24A19.73,19.73,0,0,0,15.49,9.7,4,4,0,0,1,15,7.79a4.17,4.17,0,0,1,3.85-3.94h.17m0-.41h-.18a4.59,4.59,0,0,0-4.24,4.34,4.4,4.4,0,0,0,.49,2.1,19.1,19.1,0,0,1,1.78,4.94h4.24A16,16,0,0,1,22.93,10a4.42,4.42,0,0,0-3.87-6.57Z"/><rect class="cls-1" x="16.93" y="15.81" width="4.26" height="1.39" rx="0.6" ry="0.6"/><path d="M20.59,16a.39.39,0,0,1,.39.39v.19a.39.39,0,0,1-.39.39H17.53a.39.39,0,0,1-.39-.39v-.19a.39.39,0,0,1,.39-.39h3.07m0-.41H17.53a.8.8,0,0,0-.8.8v.19a.8.8,0,0,0,.8.8h3.07a.8.8,0,0,0,.8-.8v-.19a.8.8,0,0,0-.8-.8Z"/><path class="cls-1" d="M11.43,8.31a.22.22,0,1,1,0-.44h2.11a.22.22,0,0,1,0,.44Z"/><path d="M13.54,8.08v0l-2.11,0h2.11m0-.41H11.43a.42.42,0,0,0,0,.84h2.11a.42.42,0,1,0,0-.84Z"/><path class="cls-1" d="M14.81,4.7a.21.21,0,0,1-.15-.06L13.17,3.15a.22.22,0,0,1,0-.31.21.21,0,0,1,.15-.06.22.22,0,0,1,.15.06L15,4.33a.22.22,0,0,1,0,.31A.22.22,0,0,1,14.81,4.7Z"/><path d="M13.32,3h0L14.8,4.49,13.32,3h0m0-.41a.42.42,0,0,0-.3.72l1.49,1.49a.42.42,0,1,0,.6-.6L13.62,2.69a.42.42,0,0,0-.3-.12Z"/><path class="cls-1" d="M24.54,8.31a.22.22,0,0,1,0-.44h2.11a.22.22,0,0,1,0,.44Z"/><path d="M26.65,8.08v0l-2.1,0h2.1m0-.41h-2.1a.42.42,0,1,0,0,.84h2.1a.42.42,0,0,0,0-.84Z"/><path class="cls-1" d="M23.27,4.7a.21.21,0,0,1-.15-.06.21.21,0,0,1-.06-.15.21.21,0,0,1,.06-.15L24.6,2.84a.22.22,0,0,1,.15-.06.22.22,0,0,1,.15.37L23.42,4.63A.21.21,0,0,1,23.27,4.7Z"/><path d="M24.76,3V3L23.26,4.47,24.75,3h0m0-.41a.42.42,0,0,0-.3.12L23,4.18a.42.42,0,1,0,.6.6l1.49-1.49a.42.42,0,0,0-.3-.72Z"/><path class="cls-1" d="M19.06,2.75a.22.22,0,0,1-.22-.22V.42a.22.22,0,0,1,.44,0V2.53A.22.22,0,0,1,19.06,2.75Z"/><path d="M19.06.41h0l0,2.11V.42h0m0-.41a.42.42,0,0,0-.42.42V2.53a.42.42,0,0,0,.84,0V.42A.42.42,0,0,0,19.06,0Z"/></g></g></svg>