<svg xmlns="http://www.w3.org/2000/svg" viewBox="0 0 42 35.9"><defs><style>.cls-1,.cls-2{fill:#fff;}.cls-1{stroke:#000;stroke-linejoin:round;stroke-width:0.36px;}.cls-3{fill:#231f20;}</style></defs><title>gb1</title><g id="Layer_2" data-name="Layer 2"><g id="Layer_3" data-name="Layer 3"><path class="cls-1" d="M19.95,31.89l2.69,2.27c.36.31,1,.1,1.36-.2l.35-.28a1,1,0,0,0,0-1.49l-2.49-2.65,3,2.91a1,1,0,0,0,1.33.08L27,32a1.29,1.29,0,0,0,.07-1.73L23.6,26.62l3.9,3.72a1,1,0,0,0,1.31,0l1.45-.92a1,1,0,0,0,.19-1.32L24.73,20a1,1,0,0,0-.47-.37L14.47,16a1,1,0,0,0-1.24.5L7.78,24A1,1,0,0,0,8,25.08l9,9.06a1,1,0,0,0,.42.25l3.78.83A1.24,1.24,0,0,0,22.31,35s.51-.5.43-.59C21.81,33.43,19.95,31.89,19.95,31.89Z"/><path d="M12.23,30a1.17,1.17,0,0,1-.85-.33l-.45-.46a.66.66,0,0,1-.19-.58A1,1,0,0,1,11.3,28l3.62-1.61a1.25,1.25,0,0,1,.59-.14,1.44,1.44,0,0,1,.48.08l.85.3L13.14,29.7a1.4,1.4,0,0,1-.91.33Z"/><path d="M15.51,26.36a1.31,1.31,0,0,1,.43.07l.64.23-3.52,3a1.27,1.27,0,0,1-.83.3,1,1,0,0,1-.76-.29L11,29.16a.54.54,0,0,1-.16-.47.86.86,0,0,1,.47-.58L15,26.48a1.12,1.12,0,0,1,.53-.12m0-.25a1.37,1.37,0,0,0-.64.15l-3.62,1.61a.91.91,0,0,0-.39,1.46l.45.46a1.29,1.29,0,0,0,.94.37,1.52,1.52,0,0,0,1-.36l3.85-3.23L16,26.19a1.56,1.56,0,0,0-.52-.09Z"/><path d="M17.74,35c-.48,0-1.61-1.12-2-1.56a.86.86,0,0,1,.07-1.07l4-4.65a.88.88,0,0,1,.67-.29,1,1,0,0,1,.39.08l.16.07a.84.84,0,0,1,.47.5.68.68,0,0,1-.06.57c0,.06-2.62,5.47-3.73,6.37Z"/><path d="M20.51,27.55a.85.85,0,0,1,.34.07l.16.07a.71.71,0,0,1,.4.42.58.58,0,0,1-.06.48c-.71,1.48-2.71,5.42-3.63,6.27a5.53,5.53,0,0,1-1.87-1.5.74.74,0,0,1,.06-.92l4-4.65a.76.76,0,0,1,.58-.25m0-.25a1,1,0,0,0-.76.33l-4,4.65a1,1,0,0,0-.07,1.23s1.45,1.6,2.09,1.6h.08c1.14-.93,3.76-6.4,3.76-6.4a.88.88,0,0,0-.47-1.24l-.16-.07a1.09,1.09,0,0,0-.44-.09Z"/><path d="M14.41,32.18a1.24,1.24,0,0,1-.84-.31l-.34-.31a.8.8,0,0,1,0-1.23L17,27.14a1.25,1.25,0,0,1,.83-.3,1.3,1.3,0,0,1,.49.09l1.16.46-4.23,4.42a1.22,1.22,0,0,1-.89.36Z"/><path d="M17.87,27a1.19,1.19,0,0,1,.44.08l1,.39-4.1,4.29a1.09,1.09,0,0,1-.8.32,1.11,1.11,0,0,1-.75-.28l-.34-.31a.68.68,0,0,1,0-1l3.81-3.19a1.12,1.12,0,0,1,.74-.27m0-.25A1.37,1.37,0,0,0,17,27l-3.8,3.19a.93.93,0,0,0,0,1.42l.34.31a1.36,1.36,0,0,0,.92.34,1.34,1.34,0,0,0,1-.4l4.36-4.56-1.34-.53a1.45,1.45,0,0,0-.53-.1Z"/><path d="M20.44,35.78a.7.7,0,0,1-.2,0l-.72-.22a.77.77,0,0,1-.49-.45.85.85,0,0,1,0-.73s2-4.13,2.7-5a3.18,3.18,0,0,1,1.3.84.9.9,0,0,1,.1.9l-2.05,4.25A.75.75,0,0,1,20.44,35.78Z"/><path d="M21.81,29.48a3.09,3.09,0,0,1,1.13.75A.79.79,0,0,1,23,31l-2,4.25a.63.63,0,0,1-.56.37l-.17,0-.72-.22a.65.65,0,0,1-.41-.38.73.73,0,0,1,0-.63s1.92-3.92,2.63-4.92m0-.25a.27.27,0,0,0-.13,0c-.69.9-2.71,5-2.71,5a1,1,0,0,0,.53,1.36l.72.22a.84.84,0,0,0,.24,0,.88.88,0,0,0,.79-.51l2-4.25a1,1,0,0,0-.13-1s-.89-.86-1.35-.86Z"/><path d="M25.08,20.25a1.1,1.1,0,0,0-.52-.42l-3.23-1.44L17.4,22.5a1.67,1.67,0,0,1-1.87-.12l-.11-.08a.34.34,0,0,1-.08-.46l2.6-5.24a1.92,1.92,0,0,1,1.54-.89l5.87-.52a.36.36,0,0,1,.18,0l2.74.81a.36.36,0,0,1,.12.15l6.12,8a.35.35,0,0,1,0,.33,27.47,27.47,0,0,1-3.67,4Z"/><path d="M25.37,15.07v.25a.22.22,0,0,1,.11,0h.05l2.68.79a.22.22,0,0,1,.07.09v0l0,0,6.08,7.94a.22.22,0,0,1,0,.2,33.18,33.18,0,0,1-3.53,3.92l-5.65-8.17a1.22,1.22,0,0,0-.57-.46l-3.15-1.4-.16-.07-.12.13-3.84,4a1.53,1.53,0,0,1-1.72-.1l-.11-.08a.23.23,0,0,1,0-.31L18,16.68a1.8,1.8,0,0,1,1.46-.85l5.86-.52v-.25m0,0h0l-5.87.52a2,2,0,0,0-1.65,1l-2.6,5.23a.47.47,0,0,0,.11.62l.11.08a1.78,1.78,0,0,0,2,.1l3.86-4,3.15,1.4a1,1,0,0,1,.47.37l5.74,8.3,0,0c.44,0,3.26-3.32,3.8-4.06a.47.47,0,0,0,0-.47l-6.1-8a.47.47,0,0,0-.2-.21l-2.71-.8a.47.47,0,0,0-.23-.06Z"/><rect class="cls-2" x="-0.19" y="15.53" width="14.47" height="6.14" transform="translate(-12.08 13.12) rotate(-53.25)"/><path d="M8.95,11.22l4.63,3.46L5.14,26,.51,22.52l8.44-11.3m-.07-.51L0,22.6l5.21,3.89,8.87-11.88L8.87,10.71Z"/><rect x="32" y="11.4" width="6.02" height="14.47" transform="translate(-4.19 24.65) rotate(-36.75)"/><path d="M33.06,11.29,41.5,22.6,37,26,28.52,14.68l4.53-3.39m.07-.5L28,14.61l8.87,11.88L42,22.67,33.13,10.79Z"/><circle class="cls-2" cx="4.34" cy="23.06" r="1.14"/><path d="M4.34,22.09a1,1,0,1,1-1,1,1,1,0,0,1,1-1m0-.33a1.31,1.31,0,1,0,1.31,1.31,1.31,1.31,0,0,0-1.31-1.31Z"/><circle cx="37.76" cy="23.06" r="1.14"/><path class="cls-2" d="M37.76,22.09a1,1,0,1,1-1,1,1,1,0,0,1,1-1m0-.33a1.31,1.31,0,1,0,1.31,1.31,1.31,1.31,0,0,0-1.31-1.31Z"/><circle class="cls-2" cx="21" cy="6.24" r="6.05"/><path d="M21,.38a5.86,5.86,0,1,1-5.86,5.86A5.87,5.87,0,0,1,21,.38M21,0a6.24,6.24,0,1,0,6.24,6.24A6.24,6.24,0,0,0,21,0Z"/><path class="cls-3" d="M20.68,10.08V9.13a2.72,2.72,0,0,1-1.43-.41l.22-.63a2.49,2.49,0,0,0,1.35.4c.66,0,1.11-.38,1.11-.92s-.36-.83-1.06-1.11c-1-.37-1.54-.8-1.54-1.62a1.53,1.53,0,0,1,1.41-1.5V2.4h.58v.91a2.49,2.49,0,0,1,1.21.33l-.23.62a2.26,2.26,0,0,0-1.18-.32c-.72,0-1,.43-1,.8s.35.73,1.16,1.07,1.45.88,1.45,1.71A1.63,1.63,0,0,1,21.27,9.1v1Z"/></g></g></svg>