<svg xmlns="http://www.w3.org/2000/svg" viewBox="0 0 38.76 26.85"><defs><style>.cls-1,.cls-2,.cls-4{fill:#fff;}.cls-1,.cls-2,.cls-3{stroke:#000;stroke-linejoin:round;}.cls-1{stroke-width:0.56px;}.cls-2,.cls-3{stroke-linecap:round;}.cls-2{stroke-width:0.52px;}.cls-3{fill:none;stroke-width:0.58px;}</style></defs><title>gb2</title><g id="Layer_2" data-name="Layer 2"><g id="Layer_1-2" data-name="Layer 1"><path class="cls-1" d="M.83,8a20.39,20.39,0,0,0-.55,2.76V22.27a4.16,4.16,0,0,0,4.16,4.16h22a4.14,4.14,0,0,0,.94-.12V10.55H2.13C1.41,10.55,1.14,8.61.83,8Z"/><path class="cls-1" d="M26.4,6.62a4.14,4.14,0,0,1,.94.12V6.62Z"/><path class="cls-1" d="M4.44,6.62a5.59,5.59,0,0,0-3,.71,1.77,1.77,0,0,0-.22,2.75,1.47,1.47,0,0,0,.92.47H27.34V6.73a4.14,4.14,0,0,0-.94-.12Z"/><path class="cls-2" d="M27.16,8.58H3.59L20.71.31a.53.53,0,0,1,.71.26l3.65,8H7.53"/><path class="cls-3" d="M7.88,8.5,18.94,3.25a1.62,1.62,0,0,0,2.39,1.5L23.2,8.58"/><path class="cls-3" d="M22.49,15.78h4.85a0,0,0,0,1,0,0v4.4a0,0,0,0,1,0,0H22.49a2.2,2.2,0,0,1-2.2-2.2v0a2.2,2.2,0,0,1,2.2-2.2Z"/><circle class="cls-3" cx="22.87" cy="17.98" r="0.95"/><path class="cls-4" d="M33.5,26.6c-.51,0-5,0-5-1.18s4.5-1.18,5-1.18,5,0,5,1.18S34,26.6,33.5,26.6Z"/><path d="M33.5,24.5c2.63,0,4.76.41,4.76.93s-2.13.93-4.76.93-4.76-.41-4.76-.93,2.13-.93,4.76-.93m0-.5c-1.58,0-5.26.14-5.26,1.43s3.68,1.43,5.26,1.43,5.26-.14,5.26-1.43S35.08,24,33.5,24Z"/><path class="cls-4" d="M33.5,25.23c-.51,0-5,0-5-1.18s4.5-1.18,5-1.18,5,0,5,1.18S34,25.23,33.5,25.23Z"/><path d="M33.5,23.13c2.63,0,4.76.41,4.76.93S36.13,25,33.5,25s-4.76-.41-4.76-.93,2.13-.93,4.76-.93m0-.5c-1.58,0-5.26.14-5.26,1.43s3.68,1.43,5.26,1.43,5.26-.14,5.26-1.43-3.68-1.43-5.26-1.43Z"/><path class="cls-4" d="M33.5,23.86c-.51,0-5,0-5-1.18s4.5-1.18,5-1.18,5,0,5,1.18S34,23.86,33.5,23.86Z"/><path d="M33.5,21.75c2.63,0,4.76.41,4.76.93s-2.13.93-4.76.93-4.76-.41-4.76-.93,2.13-.93,4.76-.93m0-.5c-1.58,0-5.26.14-5.26,1.43s3.68,1.43,5.26,1.43,5.26-.14,5.26-1.43-3.68-1.43-5.26-1.43Z"/></g></g></svg>