<svg xmlns="http://www.w3.org/2000/svg" viewBox="0 0 34.4 25.24"><defs><style>.cls-1{fill:#fff;}.cls-2{fill:#231f20;}.cls-3,.cls-4{fill:none;stroke:#000;stroke-linecap:round;}.cls-3{stroke-linejoin:round;}.cls-4{stroke-miterlimit:10;stroke-width:0.75px;}</style></defs><title>gb3</title><g id="Layer_2" data-name="Layer 2"><g id="Layer_3" data-name="Layer 3"><circle class="cls-1" cx="9.09" cy="4.57" r="4.43"/><path d="M9.09.28A4.29,4.29,0,1,1,4.8,4.57,4.3,4.3,0,0,1,9.09.28m0-.28a4.57,4.57,0,1,0,4.57,4.57A4.57,4.57,0,0,0,9.09,0Z"/><path class="cls-2" d="M8.86,7.37V6.68a2,2,0,0,1-1-.3L8,5.92a1.82,1.82,0,0,0,1,.29c.49,0,.81-.28.81-.67S9.51,4.94,9,4.73c-.7-.27-1.13-.59-1.13-1.18a1.12,1.12,0,0,1,1-1.1V1.76h.42v.66a1.82,1.82,0,0,1,.89.24L10,3.11a1.65,1.65,0,0,0-.86-.23c-.53,0-.72.31-.72.59s.25.53.85.78,1.06.64,1.06,1.25A1.19,1.19,0,0,1,9.29,6.66v.71Z"/><polyline class="cls-3" points="0.5 0.91 0.5 24.74 33.9 24.74"/><path d="M26.13,8.18V24.74h3.58V4.12A19.1,19.1,0,0,1,26.13,8.18Z"/><path d="M18.92,12.69V24.74h3.58V10.6A39.26,39.26,0,0,1,18.92,12.69Z"/><path d="M11.72,15.77v9H15.3V14.39C14.08,14.91,12.88,15.36,11.72,15.77Z"/><path d="M4.52,17.9v6.85H8.1v-7.8C6.7,17.35,5.47,17.67,4.52,17.9Z"/><path class="cls-4" d="M3.58,15.67A34.83,34.83,0,0,0,27.17,3"/><polygon points="28.28 4.54 28.76 0.91 25.38 2.3 28.28 4.54"/></g></g></svg>