<svg xmlns="http://www.w3.org/2000/svg" viewBox="0 0 40 38.15"><defs><style>.cls-1{fill:#fff;}</style></defs><title>gc1</title><g id="Layer_2" data-name="Layer 2"><g id="Layer_3" data-name="Layer 3"><path class="cls-1" d="M3.48,27.69l.37-.37"/><path class="cls-1" d="M0,35l.67-.67"/><path d="M1,36.12c1.26-.61,4.19-1,7.6-1,4.57,0,8.27.76,8.27,1.7v0C17.09,36.26,40,0,40,0S5.35,31.75,1,36.12Z"/><path class="cls-1" d="M8.6,38c-5,0-8.15-.71-8.15-1.22l.63-.58c1.26-.59,4.22-1,7.52-1,4.8,0,8.15.83,8.15,1.58,0,.51-3.1,1.22-8.14,1.22Z"/><path d="M8.61,35.34c4.9,0,8,.86,8,1.45-.12.39-2.9,1.1-8,1.1-4.85,0-7.61-.63-8-1l.52-.53c1.3-.6,4.21-1,7.46-1m0-.25c-3.41,0-6.34.43-7.6,1l-.67.67c0,.74,3.7,1.34,8.27,1.34h0c4.56,0,8.26-.6,8.26-1.34,0-.94-3.7-1.7-8.27-1.7Z"/><path d="M39,36.14c-1.26-.61-4.19-1-7.6-1-4.57,0-8.27.76-8.27,1.7v0C22.91,36.27,0,0,0,0S34.65,31.77,39,36.14Z"/><path class="cls-1" d="M31.42,38c-5.07,0-8.17-.71-8.17-1.22,0-.75,3.35-1.58,8.15-1.58,3.29,0,6.26.4,7.55,1l.63.65c0,.42-3.14,1.13-8.18,1.13Z"/><path d="M31.39,35.35c3.25,0,6.16.39,7.46,1l.52.52c-.38.4-3.14,1-8,1-5.12,0-7.9-.7-8-1.09,0-.59,3.12-1.45,8-1.45m0-.25c-4.57,0-8.27.76-8.27,1.7,0,.74,3.7,1.34,8.26,1.34h0c4.57,0,8.27-.6,8.27-1.34L39,36.14c-1.26-.61-4.19-1-7.6-1Z"/></g></g></svg>