<svg xmlns="http://www.w3.org/2000/svg" viewBox="0 0 40 35.75"><defs><style>.cls-1{fill:#fff;}.cls-2,.cls-3{fill:none;stroke-linecap:round;stroke-miterlimit:10;}.cls-2{stroke:#000;}.cls-3{stroke:#fff;}</style></defs><title>gc2</title><g id="Layer_2" data-name="Layer 2"><g id="Layer_3" data-name="Layer 3"><path class="cls-1" d="M11.64,26.06C1.24,26.06.44,3.57.38.37H22.89C22.83,3.57,22,26.06,11.64,26.06Z"/><path d="M22.51.75C22.4,5,21.35,25.69,11.64,25.69S.88,5,.76.75H22.51M23.27,0H0S0,26.44,11.64,26.44,23.27,0,23.27,0Z"/><path d="M28.36,35.75c-11.64,0-11.64-26.44-11.64-26.44H40S40,35.75,28.36,35.75Z"/><path class="cls-2" d="M3.51,7.23s3.39-3.61,7,0"/><path class="cls-2" d="M13,7.23s3.39-3.61,7,0"/><path class="cls-3" d="M20.5,16.3s3.39,3.61,7,0"/><path class="cls-3" d="M30,16.3s3.39,3.61,7,0"/><path class="cls-2" d="M6.85,16.9s5,4.52,9.57,0"/><path class="cls-3" d="M23.58,29.41s5-4.52,9.57,0"/></g></g></svg>