<svg xmlns="http://www.w3.org/2000/svg" viewBox="0 0 40 35.75"><defs><style>.cls-1{fill:#fff;}.cls-2{fill:none;stroke:#fff;stroke-linecap:round;stroke-miterlimit:10;stroke-width:2px;}</style></defs><title>gc3</title><g id="Layer_2" data-name="Layer 2"><g id="Layer_3" data-name="Layer 3"><path d="M37.21,2.11A8.26,8.26,0,0,0,31.69,0H8.31a8.31,8.31,0,0,0,0,16.61,8.25,8.25,0,0,0,2-.25V35.75H29.73V16.36A8.29,8.29,0,0,0,37.21,2.11Z"/><path class="cls-1" d="M32.89,4.57H7.53A3.29,3.29,0,0,0,4.24,7.16a3.19,3.19,0,0,0,3.13,3.78,3.11,3.11,0,0,0,1.45-.36A1.73,1.73,0,0,0,9.74,8.5C9.23,7.2,7.38,7.44,7.38,7.44h0c1.14-1,24.48-.9,25.59.06h0s-1.63-.2-2.25.84a1.48,1.48,0,0,0,.4,1.85,3,3,0,0,0,2,.75,3.19,3.19,0,0,0,3-3.8A3.29,3.29,0,0,0,32.89,4.57Z"/><path class="cls-1" d="M14.16,19.35h0A1.68,1.68,0,0,1,15.85,21V35.74a0,0,0,0,1,0,0H12.48a0,0,0,0,1,0,0V21a1.68,1.68,0,0,1,1.68-1.68Z"/><path class="cls-1" d="M20.21,19.35h0A1.68,1.68,0,0,1,21.89,21V35.74a0,0,0,0,1,0,0H18.53a0,0,0,0,1,0,0V21A1.68,1.68,0,0,1,20.21,19.35Z"/><path class="cls-1" d="M26.26,19.35h0A1.68,1.68,0,0,1,27.94,21V35.74a0,0,0,0,1,0,0H24.57a0,0,0,0,1,0,0V21A1.68,1.68,0,0,1,26.26,19.35Z"/><line class="cls-2" x1="13.44" y1="15.75" x2="26.61" y2="15.75"/></g></g></svg>