<svg xmlns="http://www.w3.org/2000/svg" viewBox="0 0 35.73 35.69"><defs><style>.cls-1{stroke:#fff;stroke-miterlimit:10;stroke-width:0.43px;}</style></defs><title>ge2</title><g id="Layer_2" data-name="Layer 2"><g id="Layer_1-2" data-name="Layer 1"><path class="cls-1" d="M31.28,35.71"/><path d="M17,0a17.76,17.76,0,0,0-9.7,3.43,11.09,11.09,0,0,0,2,3.66A20.08,20.08,0,0,1,17,0Z"/><path d="M17.54,34.39V24.66a11,11,0,0,0-7.27,3A19,19,0,0,0,17.54,34.39Z"/><path d="M10.13,7.91A11,11,0,0,0,17.54,11V.92A19,19,0,0,0,10.13,7.91Z"/><path d="M28.32,3.35A17.75,17.75,0,0,0,19.5,0q-.48.19-1,.4V11A11.08,11.08,0,0,0,28.32,3.35Z"/><path d="M17.54,35.69v-.1a20.09,20.09,0,0,1-8.06-7.16,11.11,11.11,0,0,0-2.18,3.81A17.77,17.77,0,0,0,17.54,35.69Z"/><path d="M18.54,24.68V34.87c.55.25,1.11.47,1.68.66a17.75,17.75,0,0,0,8.09-3.22A11.08,11.08,0,0,0,18.54,24.68Z"/><rect x="18.54" y="16.88" width="2.1" height="1.91"/><path d="M28.48,18.19A3.55,3.55,0,0,1,25,21.39H23.28a.88.88,0,0,1-.88-.88V15.16a.88.88,0,0,1,.88-.88H25a3.55,3.55,0,0,1,3.51,3.09h7.26A17.83,17.83,0,0,0,29.16,4a12.08,12.08,0,0,1-10.61,8v4.14h2.1V14.9a.63.63,0,1,1,1.27,0v5.86a.63.63,0,0,1-1.27,0V19.54h-2.1v4.14a12.08,12.08,0,0,1,10.61,8,17.83,17.83,0,0,0,6.57-13.5Z"/><path d="M6.31,17.45A19.85,19.85,0,0,1,8.82,8,12.14,12.14,0,0,1,6.47,4.06,17.83,17.83,0,0,0,0,17.45Z"/><path d="M0,18.45A17.84,17.84,0,0,0,6.47,31.61a12.14,12.14,0,0,1,2.47-4.07,19.85,19.85,0,0,1-2.61-9.09Z"/><path d="M17.54,17.45V12A12,12,0,0,1,9.61,8.79,18.77,18.77,0,0,0,7.4,17.45Z"/><path d="M7.42,18.45a18.77,18.77,0,0,0,2.32,8.31,12,12,0,0,1,7.8-3.1V18.45Z"/></g></g></svg>