<svg xmlns="http://www.w3.org/2000/svg" viewBox="0 0 35.75 35.75"><title>ge3</title><g id="Layer_2" data-name="Layer 2"><g id="Layer_1-2" data-name="Layer 1"><path d="M17.88,0A17.88,17.88,0,1,0,35.75,17.88,17.88,17.88,0,0,0,17.88,0ZM10.74,30.59a4.73,4.73,0,0,1-1.22-.17A38.65,38.65,0,0,1,10,9.49C6.43,14.93,8,27.2,8.42,30,2.76,27.26-2.42,15.2,12.92,3.48,12.92,3.48,23.89,30.59,10.74,30.59Zm8.15-13.67h1.66v1.91H18.89Zm0,17.8V19.58h1.66V20.8a.63.63,0,0,0,1.27,0V14.95a.63.63,0,1,0-1.27,0v1.22H18.89V1A16.89,16.89,0,0,1,34.74,17.4H28.37a3.55,3.55,0,0,0-3.51-3.09H23.18a.88.88,0,0,0-.88.88v5.36a.88.88,0,0,0,.88.88h1.68a3.55,3.55,0,0,0,3.53-3.21h6.36A16.89,16.89,0,0,1,18.89,34.72Z"/></g></g></svg>