<svg xmlns="http://www.w3.org/2000/svg" viewBox="0 0 33.75 36.14"><defs><style>.cls-1,.cls-2,.cls-4,.cls-5{fill:#fff;}.cls-1,.cls-2,.cls-3,.cls-4,.cls-5{stroke:#000;stroke-linejoin:round;}.cls-1,.cls-2{stroke-width:0.56px;}.cls-2,.cls-5{stroke-linecap:round;}.cls-3,.cls-4{stroke-width:0.48px;}.cls-5{stroke-width:0.86px;}</style></defs><title>gfp1</title><g id="Layer_2" data-name="Layer 2"><g id="Layer_1-2" data-name="Layer 1"><path class="cls-1" d="M.49,30.18a4.11,4.11,0,0,1-.21-1.24V4.44A4.16,4.16,0,0,1,4.44.28h22a4.14,4.14,0,0,1,.94.12V29.17H2.13A1.85,1.85,0,0,0,.49,30.18Z"/><path class="cls-1" d="M4.44,33.1a4.15,4.15,0,0,1-4-2.92,1.85,1.85,0,0,1,1.64-1H27.34V33a4.14,4.14,0,0,1-.94.12Z"/><line class="cls-2" x1="2.63" y1="30.52" x2="25.84" y2="30.52"/><line class="cls-2" x1="4" y1="31.75" x2="25.84" y2="31.75"/><polygon class="cls-2" points="5.76 30.52 5.76 35.86 7.38 34.14 8.94 35.7 8.94 30.52 5.76 30.52"/><rect class="cls-2" x="6.61" y="4.24" width="14.62" height="7.42" rx="2" ry="2"/><line class="cls-2" x1="9.61" y1="6.6" x2="18.21" y2="6.6"/><line class="cls-2" x1="9.61" y1="7.96" x2="18.21" y2="7.96"/><polygon class="cls-3" points="29.86 31.62 30.71 33.7 31.56 31.62 29.86 31.62"/><path class="cls-4" d="M30.64,1.05H31a.45.45,0,0,1,.45.45V6.17a0,0,0,0,1,0,0H30.19a0,0,0,0,1,0,0V1.51A.45.45,0,0,1,30.64,1.05Z"/><path class="cls-4" d="M32.41,9.78V5.06a1.7,1.7,0,1,0-3.39,0V9.78Z"/><rect class="cls-4" x="29.02" y="10.38" width="3.39" height="20.08"/><path class="cls-4" d="M32.08,31.08l.33-.81H29l.33.81a1.47,1.47,0,0,0,1.37.92h0A1.47,1.47,0,0,0,32.08,31.08Z"/><line class="cls-5" x1="33.32" y1="5.08" x2="33.32" y2="15.81"/></g></g></svg>