<svg xmlns="http://www.w3.org/2000/svg" viewBox="0 0 35.67 36.36"><defs><style>.cls-1,.cls-2,.cls-3,.cls-5,.cls-6,.cls-7{stroke:#000;stroke-linejoin:round;}.cls-2,.cls-3,.cls-4,.cls-6,.cls-7{fill:#fff;}.cls-3,.cls-5,.cls-7{stroke-linecap:round;}.cls-3,.cls-5{stroke-width:0.56px;}.cls-5{fill:none;}.cls-6{stroke-width:0.54px;}.cls-7{stroke-width:0.86px;}</style></defs><title>gfp2</title><g id="Layer_2" data-name="Layer 2"><g id="Layer_1-2" data-name="Layer 1"><path class="cls-1" d="M.71,30.41A4.11,4.11,0,0,1,.5,29.16V4.66A4.16,4.16,0,0,1,4.66.5h22a4.14,4.14,0,0,1,.94.12V29.39H2.35A1.85,1.85,0,0,0,.71,30.41Z"/><path class="cls-2" d="M4.66,33.32a4.15,4.15,0,0,1-4-2.92,1.85,1.85,0,0,1,1.64-1H27.56v3.82a4.14,4.14,0,0,1-.94.12Z"/><line class="cls-3" x1="2.85" y1="30.74" x2="26.06" y2="30.74"/><line class="cls-3" x1="4.22" y1="31.97" x2="26.06" y2="31.97"/><polygon class="cls-3" points="5.99 30.74 5.99 36.08 7.6 34.36 9.16 35.92 9.16 30.74 5.99 30.74"/><rect class="cls-4" x="7.08" y="4.72" width="14.12" height="6.92" rx="1.75" ry="1.75"/><path class="cls-4" d="M19.44,5a1.5,1.5,0,0,1,1.5,1.5V9.89a1.5,1.5,0,0,1-1.5,1.5H8.83a1.5,1.5,0,0,1-1.5-1.5V6.47A1.5,1.5,0,0,1,8.83,5H19.44m0-.5H8.83a2,2,0,0,0-2,2V9.89a2,2,0,0,0,2,2H19.44a2,2,0,0,0,2-2V6.47a2,2,0,0,0-2-2Z"/><line class="cls-5" x1="9.83" y1="6.82" x2="18.43" y2="6.82"/><line class="cls-5" x1="9.83" y1="8.18" x2="18.43" y2="8.18"/><polygon class="cls-6" points="31.66 31.55 32.63 33.92 33.6 31.55 31.66 31.55"/><path d="M32.63,3.59a1.7,1.7,0,0,0-1.7,1.7V10h3.39V5.28A1.7,1.7,0,0,0,32.63,3.59Z"/><path d="M30.93,30.68l.33.62a1.47,1.47,0,0,0,2.73,0l.33-.62V10.61H30.93Z"/><line class="cls-7" x1="35.24" y1="5.3" x2="35.24" y2="16.03"/></g></g></svg>