<svg xmlns="http://www.w3.org/2000/svg" viewBox="0 0 13.6 38.11"><title>gfp3</title><g id="Layer_2" data-name="Layer 2"><g id="Layer_1-2" data-name="Layer 1"><path d="M13.46,9.35a6.81,6.81,0,0,1-13.32,0h0l3.2,22.86a3.86,3.86,0,0,0,2.54,3.31v1.67a.92.92,0,1,0,1.85,0V35.52a3.86,3.86,0,0,0,2.55-3.31L13.46,9.35Z"/><path d="M.19,6.63A10.21,10.21,0,0,0,6.7,9.69a9.16,9.16,0,0,0,6.72-3.07.27.27,0,0,1,.18-.07A6.81,6.81,0,0,0,0,6.54.28.28,0,0,1,.19,6.63Z"/><path d="M6.89,10.25H6.68A10.46,10.46,0,0,1,0,7.23a6.81,6.81,0,0,0,13.59,0A9.69,9.69,0,0,1,6.89,10.25Z"/></g></g></svg>