<svg xmlns="http://www.w3.org/2000/svg" viewBox="0 0 13.6 38.11"><defs><style>.cls-1,.cls-2{fill:#fff;}.cls-2{stroke:#000;stroke-miterlimit:10;stroke-width:0.88px;}</style></defs><title>gfp4</title><g id="Layer_2" data-name="Layer 2"><g id="Layer_1-2" data-name="Layer 1"><path class="cls-1" d="M6.8,37.74a.55.55,0,0,1-.55-.55V35.25L6,35.17a3.48,3.48,0,0,1-2.29-3L.89,12a7.18,7.18,0,0,0,11.83,0L9.9,32.16a3.48,3.48,0,0,1-2.29,3l-.26.08v1.94A.55.55,0,0,1,6.8,37.74Z"/><path d="M12.16,13.25,9.52,32.13a3.1,3.1,0,0,1-2,2.68L7,35v2.22a.17.17,0,1,1-.35,0V35l-.52-.17a3.11,3.11,0,0,1-2-2.7L1.44,13.25a7.53,7.53,0,0,0,10.72,0m1.3-3.9h0a6.81,6.81,0,0,1-13.32,0h0l3.2,22.86a3.86,3.86,0,0,0,2.54,3.31v1.67a.92.92,0,1,0,1.85,0V35.52a3.86,3.86,0,0,0,2.55-3.31L13.46,9.35Z"/><path class="cls-1" d="M6.71,9.31A9.81,9.81,0,0,1,.47,6.38L.39,6.3a6.43,6.43,0,0,1,12.82,0l-.06,0a8.92,8.92,0,0,1-6.24,3Z"/><path d="M6.8.75a6,6,0,0,1,6,5.4A8.51,8.51,0,0,1,6.91,8.94H6.72A9.45,9.45,0,0,1,.78,6.16,6,6,0,0,1,6.8.75M6.8,0A6.81,6.81,0,0,0,0,6.54a.28.28,0,0,1,.19.09A10.21,10.21,0,0,0,6.7,9.69h.21a9.25,9.25,0,0,0,6.51-3.07.27.27,0,0,1,.18-.07A6.81,6.81,0,0,0,6.8,0Z"/><path class="cls-1" d="M6.8,13.25A6.44,6.44,0,0,1,.51,8.18a10.51,10.51,0,0,0,6.16,2.44h.22a9.62,9.62,0,0,0,6.2-2.46A6.44,6.44,0,0,1,6.8,13.25Z"/><path d="M1.21,9.16A10.43,10.43,0,0,0,6.66,11h.24a9.54,9.54,0,0,0,5.49-1.82,6.05,6.05,0,0,1-11.17,0M13.59,7.21a9.69,9.69,0,0,1-6.7,3H6.68A10.46,10.46,0,0,1,0,7.23a6.81,6.81,0,0,0,13.59,0Z"/><line class="cls-2" x1="5.88" y1="35.36" x2="7.72" y2="35.36"/><circle cx="2.13" cy="5.53" r="0.69" transform="translate(-3.29 3.13) rotate(-45)"/><circle cx="6.8" cy="4.85" r="0.69" transform="translate(-1.43 6.23) rotate(-45)"/><circle cx="4.36" cy="6.79" r="0.69" transform="translate(-3.53 5.08) rotate(-45)"/><circle cx="6.94" cy="7.62" r="0.69" transform="translate(-3.36 7.14) rotate(-45)"/><circle cx="9.26" cy="6.97" r="0.69" transform="translate(-2.21 8.59) rotate(-45)"/><circle cx="6.8" cy="1.81" r="0.69" transform="translate(0.71 5.34) rotate(-45)"/><circle cx="4.17" cy="3.49" r="0.69" transform="translate(-1.25 3.97) rotate(-45)"/><circle cx="11.29" cy="5.82" r="0.69" transform="translate(-0.81 9.68) rotate(-45)"/><circle cx="9.26" cy="3.49" r="0.69" transform="matrix(1, -0.08, 0.08, 1, -0.26, 0.79)"/></g></g></svg>