<svg xmlns="http://www.w3.org/2000/svg" viewBox="0 0 28.52 39.86"><defs><style>.cls-1{fill:#fff;}</style></defs><title>gfp5</title><g id="Layer_2" data-name="Layer 2"><g id="Layer_1-2" data-name="Layer 1"><path class="cls-1" d="M22.54,5.88A6.26,6.26,0,0,1,18.59,4l0,0a4.06,4.06,0,0,1,8.1,0l0,0a5.64,5.64,0,0,1-3.95,1.87Z"/><path d="M22.6.47a3.82,3.82,0,0,1,3.8,3.41,5.38,5.38,0,0,1-3.73,1.76h-.12a6,6,0,0,1-3.75-1.76A3.82,3.82,0,0,1,22.6.47m0-.47a4.3,4.3,0,0,0-4.3,4.13.18.18,0,0,1,.12.06,6.45,6.45,0,0,0,4.11,1.93h.13a5.84,5.84,0,0,0,4.11-1.94.17.17,0,0,1,.11,0A4.3,4.3,0,0,0,22.6,0Z"/><path class="cls-1" d="M22.6,8.37a4.07,4.07,0,0,1-4-3.2,6.64,6.64,0,0,0,3.89,1.54h.14a6.07,6.07,0,0,0,3.91-1.55A4.07,4.07,0,0,1,22.6,8.37Z"/><path d="M19.07,5.78A6.59,6.59,0,0,0,22.5,6.94h.15a6,6,0,0,0,3.47-1.15,3.82,3.82,0,0,1-7.06,0m7.82-1.23a6.12,6.12,0,0,1-4.23,1.92h-.14a6.61,6.61,0,0,1-4.22-1.9,4.3,4.3,0,0,0,8.58,0Z"/><circle cx="19.65" cy="3.5" r="0.43" transform="translate(3.28 14.92) rotate(-45)"/><circle cx="22.6" cy="3.06" r="0.43" transform="translate(4.45 16.87) rotate(-45)"/><circle cx="21.06" cy="4.29" r="0.43" transform="translate(3.13 16.15) rotate(-45)"/><circle cx="22.68" cy="4.81" r="0.43" transform="translate(3.24 17.45) rotate(-45)"/><circle cx="24.15" cy="4.4" r="0.43" transform="translate(3.96 18.37) rotate(-45)"/><circle cx="22.6" cy="1.14" r="0.43" transform="translate(5.81 16.31) rotate(-45)"/><circle cx="20.93" cy="2.21" r="0.43" transform="translate(4.57 15.45) rotate(-45)"/><circle cx="25.43" cy="3.68" r="0.43" transform="translate(4.85 19.06) rotate(-45)"/><circle cx="24.15" cy="2.21" r="0.43" transform="translate(-0.1 2.05) rotate(-4.84)"/><path class="cls-1" d="M22.54,5.88A6.26,6.26,0,0,1,18.59,4l0,0a4.06,4.06,0,0,1,8.1,0l0,0a5.64,5.64,0,0,1-3.95,1.87Z"/><path d="M22.6.47a3.82,3.82,0,0,1,3.8,3.41,5.38,5.38,0,0,1-3.73,1.76h-.12a6,6,0,0,1-3.75-1.76A3.82,3.82,0,0,1,22.6.47m0-.47a4.3,4.3,0,0,0-4.3,4.13.18.18,0,0,1,.12.06,6.45,6.45,0,0,0,4.11,1.93h.13a5.84,5.84,0,0,0,4.11-1.94.17.17,0,0,1,.11,0A4.3,4.3,0,0,0,22.6,0Z"/><path d="M20.29,5.93l.09,0Z"/><path d="M20.29,5.93l.09,0-.09,0Z"/><path d="M9,39.58v-6a4.15,4.15,0,0,0-1.34-3L5.86,28.79A18.25,18.25,0,0,1,4,25.39c-.94-2-1.3-2.69-1.62-2.82L.55,21.81a.43.43,0,0,1-.22-.59S3.5,14.48,5.24,10.87a9.42,9.42,0,0,1,4-4.32,12.19,12.19,0,0,1,8.9-1c0,.14.08.27.13.41l-.2,0,2,14.44a2.74,2.74,0,0,0,1.6,2.25v.86a.87.87,0,0,0,1.73,0v-.86a2.75,2.75,0,0,0,1.61-2.25l1.2-8.6a14.88,14.88,0,0,1-.17,15.06l0,.07h0L23,32.24a7.23,7.23,0,0,0-1,3.6v3.73ZM22.6,9a4,4,0,0,1-2.44-.84,4.56,4.56,0,0,0,2.44.7,4.41,4.41,0,0,0,1.26-.19l.09.08A3.88,3.88,0,0,1,22.6,9Z"/><path d="M15.09,5.38A12,12,0,0,1,18,5.74L18,6l-.2,0,2,14.43a3.06,3.06,0,0,0,1.6,2.4v.67a1.15,1.15,0,0,0,2.3,0v-.67a3,3,0,0,0,1.6-2.39l1.08-7.75a14.61,14.61,0,0,1-.57,14l-.08.15h0l-3,5.25a7.52,7.52,0,0,0-1,3.74v3.45H9.33V33.54a4.44,4.44,0,0,0-1.43-3.25L6.05,28.58a19.18,19.18,0,0,1-1.78-3.31C3.2,23,2.91,22.47,2.5,22.3L.66,21.55a.14.14,0,0,1-.08-.08.16.16,0,0,1,0-.13c0-.07,3.19-6.77,4.9-10.34a9.14,9.14,0,0,1,3.92-4.2,12,12,0,0,1,5.67-1.41m0-.57A12.65,12.65,0,0,0,9.15,6.29,9.77,9.77,0,0,0,5,10.74C3.25,14.36.08,21.09.08,21.09a.71.71,0,0,0,.36,1l1.84.75c.52.21,2.5,5.36,3.38,6.17L7.52,30.7a3.86,3.86,0,0,1,1.24,2.84v6.32H22.33v-4a6.94,6.94,0,0,1,.92-3.46L26.35,27h0a15.15,15.15,0,0,0-.25-16l-1.31,9.39a2.44,2.44,0,0,1-1.61,2.09V23.5a.58.58,0,0,1-1.17,0V22.44a2.44,2.44,0,0,1-1.61-2.09l-2-14.44h0a4.31,4.31,0,0,0,4.21,3.4,4.26,4.26,0,0,0,1.85-.43c-.17-.17-.34-.34-.51-.5a4.23,4.23,0,0,1-5.51-3.11,12.59,12.59,0,0,0-3.33-.46Z"/><path class="cls-1" d="M25.95,10.32a14.41,14.41,0,0,0-1.12-1.38,4.62,4.62,0,0,0,1.5-1.37Z"/><path d="M26,8.36l-.19,1.36q-.29-.37-.6-.72A4.85,4.85,0,0,0,26,8.36m.82-2.45h0a4.3,4.3,0,0,1-2.36,3A14.22,14.22,0,0,1,26.1,11l.71-5.05Z"/><path d="M22.6,23.84a.35.35,0,0,1-.35-.35V22.27l-.17-.05a2.2,2.2,0,0,1-1.44-1.89L18.86,7.58a4.56,4.56,0,0,0,3.74,2,4.45,4.45,0,0,0,1.79-.38A14,14,0,0,1,25.85,11l-1.3,9.3a2.2,2.2,0,0,1-1.45,1.9l-.17.05V23.5A.35.35,0,0,1,22.6,23.84Z"/><path class="cls-1" d="M19.21,8.37A4.79,4.79,0,0,0,22.6,9.78a4.66,4.66,0,0,0,1.73-.34,13.82,13.82,0,0,1,1.28,1.63L24.32,20.3a2,2,0,0,1-1.14,1.64H22a2,2,0,0,1-1.14-1.65L19.21,8.37m3.28,14.44h.22v.68a.11.11,0,1,1-.22,0v-.68M18.39,5.91h0l2,14.44A2.44,2.44,0,0,0,22,22.44V23.5a.58.58,0,1,0,1.17,0V22.44a2.44,2.44,0,0,0,1.61-2.09L26.1,11a14.22,14.22,0,0,0-1.66-2.08,4.26,4.26,0,0,1-1.85.43,4.31,4.31,0,0,1-4.21-3.4Zm4.79,16.43h0Z"/><path class="cls-1" d="M18.3,4.57a4.28,4.28,0,0,0,.11.7,12.74,12.74,0,0,1,1.88.66A7.34,7.34,0,0,1,18.3,4.57Z"/><path d="M18.3,4.57a4.28,4.28,0,0,0,.11.7,12.74,12.74,0,0,1,1.88.66,7.34,7.34,0,0,1-2-1.36Z"/><path class="cls-1" d="M24,8.11a14.08,14.08,0,0,0-1.82-1.42l.35,0h.14a6.07,6.07,0,0,0,3.91-1.55A4,4,0,0,1,24,8.11Z"/><path d="M26.12,5.79a3.81,3.81,0,0,1-2.08,2q-.53-.48-1.1-.9a6.1,6.1,0,0,0,3.18-1.15m.77-1.24a6.12,6.12,0,0,1-4.23,1.92h-.14A5.66,5.66,0,0,1,20.38,6a13.34,13.34,0,0,1,3.55,2.41,4.29,4.29,0,0,0,3-3.83Z"/><path d="M22.6,8.37a4,4,0,0,1-3.84-2.75,11.73,11.73,0,0,1,1.44.53,13.25,13.25,0,0,1,3.26,2.12A3.71,3.71,0,0,1,22.6,8.37Z"/><path class="cls-1" d="M19.17,6c.34.11.65.24.95.37l.06,0a12.62,12.62,0,0,1,2.73,1.72l-.32,0A3.8,3.8,0,0,1,19.17,6m-.76-.73a4.23,4.23,0,0,0,5.51,3.11A13.34,13.34,0,0,0,20.38,6l-.09,0a12.74,12.74,0,0,0-1.88-.66Z"/><circle cx="19.65" cy="3.5" r="0.43" transform="translate(3.28 14.92) rotate(-45)"/><circle cx="22.6" cy="3.06" r="0.43" transform="translate(4.45 16.87) rotate(-45)"/><circle cx="21.06" cy="4.29" r="0.43" transform="translate(3.13 16.15) rotate(-45)"/><circle cx="22.68" cy="4.81" r="0.43" transform="translate(3.24 17.45) rotate(-45)"/><circle cx="24.15" cy="4.4" r="0.43" transform="translate(3.96 18.37) rotate(-45)"/><circle cx="22.6" cy="1.14" r="0.43" transform="translate(5.81 16.31) rotate(-45)"/><circle cx="20.93" cy="2.21" r="0.43" transform="translate(4.57 15.45) rotate(-45)"/><circle cx="25.43" cy="3.68" r="0.43" transform="translate(4.85 19.06) rotate(-45)"/><circle cx="24.15" cy="2.21" r="0.43" transform="translate(-0.1 2.05) rotate(-4.84)"/></g></g></svg>