<svg xmlns="http://www.w3.org/2000/svg" viewBox="0 0 37.9 37.9"><title>gg1</title><g id="Layer_2" data-name="Layer 2"><g id="Layer_1-2" data-name="Layer 1"><path d="M19,0a19,19,0,1,0,19,19A19,19,0,0,0,19,0ZM36.51,15.5c-.29-.31-.58-.61-.88-.9a16.32,16.32,0,0,0-4.15-8.56A17.82,17.82,0,0,1,36.51,15.5Zm-10.81-5a24,24,0,0,1,4.54,1.61c0,.07,0,.13,0,.2a10.43,10.43,0,0,1-2.35,6.6,22.52,22.52,0,0,0-3.28-6.28A5.11,5.11,0,0,0,25.7,10.51ZM24,11.82a23.75,23.75,0,0,0-1.7-1.92c.62.07,1.46.18,2.43.38A4.12,4.12,0,0,1,24,11.82ZM22.18,8.94a25.53,25.53,0,0,0,1.88-2,4.12,4.12,0,0,1,.78,2.39A25,25,0,0,0,22.18,8.94Zm-.64-.69a27.22,27.22,0,0,0-.36-3,4.11,4.11,0,0,1,2.24,1A24.57,24.57,0,0,1,21.54,8.25Zm-.31,1.57h0Zm0,.32a22.3,22.3,0,0,1,2.13,2.37,4.11,4.11,0,0,1-2.25.94Zm2.73,3.17a21.56,21.56,0,0,1,3.22,6.42,10.45,10.45,0,0,1-6.4,3l.3-8.29A5.1,5.1,0,0,0,23.94,13.31Zm3.5,7.43a16.14,16.14,0,0,1,.4,2.66,15.83,15.83,0,0,1-1.43,7.49,15.27,15.27,0,0,1-6,1.63l.32-8.84A11.34,11.34,0,0,0,27.43,20.74Zm1.32,2.6A17.43,17.43,0,0,0,28.2,20a11.34,11.34,0,0,0,3-7.39A18.58,18.58,0,0,1,34.68,15a15.17,15.17,0,0,1-7,15.1A16.53,16.53,0,0,0,28.75,23.34Zm5.65-9.78a20,20,0,0,0-3.28-2.08,11.36,11.36,0,0,0-3.28-7.2A15.43,15.43,0,0,1,34.4,13.56ZM30.15,11a24.61,24.61,0,0,0-4.33-1.47c0-.07,0-.13,0-.2A5.1,5.1,0,0,0,24.7,6.15c.49-.62,1-1.32,1.49-2.09A10.47,10.47,0,0,1,30.15,11ZM25.43,3.52c-.46.72-.93,1.37-1.38,2A5.1,5.1,0,0,0,21,4.22c-.16-.75-.36-1.54-.62-2.35A10.4,10.4,0,0,1,25.43,3.52ZM20.6,8.22a27.4,27.4,0,0,0-2.58-2,4.11,4.11,0,0,1,2.21-1A26.3,26.3,0,0,1,20.6,8.22Zm-.78,1.35a16.46,16.46,0,0,0-2.69,1.87,4.1,4.1,0,0,1-.51-1.29A27.43,27.43,0,0,1,19.82,9.58Zm-3.27-.36a4.11,4.11,0,0,1,.82-2.33,26.55,26.55,0,0,1,2.3,1.77A28.35,28.35,0,0,0,16.55,9.22Zm2.83-7.36A24.79,24.79,0,0,1,20,4.26a5.11,5.11,0,0,0-2.88,1.36,25.1,25.1,0,0,0-3.44-1.84A10.41,10.41,0,0,1,19.38,1.86ZM11.5,30.33A15.38,15.38,0,0,1,4.09,17.8a18.06,18.06,0,0,1,4.36-4.13,11.35,11.35,0,0,0,2.63,6A14.5,14.5,0,0,0,11.5,30.33ZM8.38,12.6A19.47,19.47,0,0,0,4.1,16.29,15.39,15.39,0,0,1,11.58,4l.33.11a11.36,11.36,0,0,0-3.55,8.25C8.36,12.41,8.37,12.51,8.38,12.6Zm1,.5a25.28,25.28,0,0,1,6.33-2.7,5.11,5.11,0,0,0,.71,1.71A21.76,21.76,0,0,0,13,15.85a17.07,17.07,0,0,0-1.58,2.84A10.41,10.41,0,0,1,9.33,13.11Zm6.21-3.76s0,.08,0,.13A26.71,26.71,0,0,0,9.3,12a10.44,10.44,0,0,1,3.58-7.6,23.66,23.66,0,0,1,3.65,1.89A5.11,5.11,0,0,0,15.54,9.34Zm-2.85-6,.13-.06-.1.07Zm2.94-2.12a16.28,16.28,0,0,0-4.25,1.67L11,2.8A17.71,17.71,0,0,1,15.62,1.24ZM1.07,18.79A17.85,17.85,0,0,1,9.8,3.46l.48.11A16.38,16.38,0,0,0,3.05,17.16c0,.15,0,.3,0,.45A17.73,17.73,0,0,0,1.22,21,18,18,0,0,1,1.07,18.79Zm.46,4a17.16,17.16,0,0,1,1.65-3.62,16.39,16.39,0,0,0,9,12.7,26,26,0,0,0,2.88,4.37A17.88,17.88,0,0,1,1.54,22.78ZM19.32,36.65l-.37,0a17.93,17.93,0,0,1-2.46-.19,27.71,27.71,0,0,1-2.9-4,16.32,16.32,0,0,0,5.84,1.1Zm.15-4.09h0a15.28,15.28,0,0,1-6.61-1.51,14,14,0,0,1-1-10.58,11.36,11.36,0,0,0,8,3.25h0Zm.35-9.77h-.05a10.44,10.44,0,0,1-7.62-3.3,18.08,18.08,0,0,1,4.78-6.65,5.11,5.11,0,0,0,3.19,1.6Zm.33-9.35a4.13,4.13,0,0,1-2.47-1.25,18.51,18.51,0,0,1,2.58-1.8Zm.11,23.16.11-3.08a16.31,16.31,0,0,0,5.32-1.19A23.31,23.31,0,0,1,23,36.19,17.83,17.83,0,0,1,20.26,36.6Zm4.27-.84a22.36,22.36,0,0,0,2.52-4.08,16.39,16.39,0,0,0,8.79-14.52c0-.35,0-.7-.05-1,.33.35.65.72,1,1.11,0,.52.08,1,.08,1.56A17.87,17.87,0,0,1,24.54,35.76Z"/></g></g></svg>