<svg xmlns="http://www.w3.org/2000/svg" viewBox="0 0 31.15 31.15"><title>gg3</title><g id="Layer_2" data-name="Layer 2"><g id="Layer_1-2" data-name="Layer 1"><path d="M15.58,0A15.58,15.58,0,1,0,31.15,15.58,15.58,15.58,0,0,0,15.58,0Zm-.86,1.41A16,16,0,0,0,8.63,7.05,8.81,8.81,0,0,1,7,4.14,14.12,14.12,0,0,1,14.71,1.41ZM6.34,4.64A9.65,9.65,0,0,0,8.2,7.76a15.78,15.78,0,0,0-2,7.53h-5A14.18,14.18,0,0,1,6.34,4.64ZM1.2,16.08h5a15.78,15.78,0,0,0,2.08,7.23,9.65,9.65,0,0,0-2,3.23A14.18,14.18,0,0,1,1.2,16.08ZM15.14,29.79A14.12,14.12,0,0,1,7,27a8.83,8.83,0,0,1,1.73-3,16,16,0,0,0,6.4,5.69Zm0-1a15.11,15.11,0,0,1-5.78-5.37A8.75,8.75,0,0,1,15.14,21Zm0-8.53a9.54,9.54,0,0,0-6.2,2.46,14.92,14.92,0,0,1-1.85-6.6h8Zm0-4.93H7.08A14.92,14.92,0,0,1,8.83,8.4,9.54,9.54,0,0,0,15.14,11Zm0-5.12A8.76,8.76,0,0,1,9.25,7.7a15.11,15.11,0,0,1,5.89-5.56ZM30,15.24h-5a15.78,15.78,0,0,0-2-7.53,9.65,9.65,0,0,0,1.87-3.12A14.18,14.18,0,0,1,30,15.24ZM24.15,4.09A8.81,8.81,0,0,1,22.52,7a16,16,0,0,0-6.08-5.64A14.12,14.12,0,0,1,24.15,4.09ZM16,2.1a15.11,15.11,0,0,1,5.89,5.56A8.76,8.76,0,0,1,16,10.12Zm0,8.81a9.54,9.54,0,0,0,6.3-2.56,14.92,14.92,0,0,1,1.76,6.88H16ZM16,16h8a14.92,14.92,0,0,1-1.85,6.6A9.54,9.54,0,0,0,16,20.17ZM16,21a8.75,8.75,0,0,1,5.78,2.36A15.11,15.11,0,0,1,16,28.7Zm0,8.77v-.08A16,16,0,0,0,22.42,24a8.83,8.83,0,0,1,1.73,3A14.12,14.12,0,0,1,16,29.74Zm8.8-3.25a9.65,9.65,0,0,0-2-3.23A15.78,15.78,0,0,0,24.92,16h5A14.18,14.18,0,0,1,24.81,26.49Z"/></g></g></svg>