<svg xmlns="http://www.w3.org/2000/svg" viewBox="0 0 27.86 35.8"><title>gg4</title><g id="Layer_2" data-name="Layer 2"><g id="Layer_1-2" data-name="Layer 1"><path d="M12.2,1.4a12.74,12.74,0,0,0-7,2.46A8,8,0,0,0,6.71,6.49,14.4,14.4,0,0,1,12.2,1.4Z"/><path d="M12.58,26.06v-7a7.89,7.89,0,0,0-5.22,2.13A13.63,13.63,0,0,0,12.58,26.06Z"/><path d="M7.27,7.08A7.9,7.9,0,0,0,12.58,9.3V2.06A13.63,13.63,0,0,0,7.27,7.08Z"/><path d="M12.58,27v-.07A14.41,14.41,0,0,1,6.8,21.79a8,8,0,0,0-1.56,2.73A12.74,12.74,0,0,0,12.58,27Z"/><path d="M4.53,13.92a14.24,14.24,0,0,1,1.8-6.79A8.71,8.71,0,0,1,4.64,4.31,12.79,12.79,0,0,0,0,13.92Z"/><path d="M0,14.63a12.79,12.79,0,0,0,4.64,9.44,8.7,8.7,0,0,1,1.77-2.92,14.23,14.23,0,0,1-1.87-6.52Z"/><path d="M12.58,13.92V10A8.61,8.61,0,0,1,6.89,7.71a13.46,13.46,0,0,0-1.59,6.21Z"/><path d="M5.32,14.63a13.46,13.46,0,0,0,1.66,6,8.6,8.6,0,0,1,5.6-2.22V14.63Z"/><path d="M13.75,1.36a12.74,12.74,0,0,1,7,2.46,8,8,0,0,1-1.47,2.63A14.4,14.4,0,0,0,13.75,1.36Z"/><path d="M13.37,26V19a7.89,7.89,0,0,1,5.22,2.13A13.63,13.63,0,0,1,13.37,26Z"/><path d="M18.69,7a7.9,7.9,0,0,1-5.32,2.22V2A13.63,13.63,0,0,1,18.69,7Z"/><path d="M13.37,27v-.07a14.41,14.41,0,0,0,5.78-5.14,8,8,0,0,1,1.56,2.73A12.74,12.74,0,0,1,13.37,27Z"/><path d="M21.42,13.87a14.24,14.24,0,0,0-1.8-6.79,8.71,8.71,0,0,0,1.68-2.81A12.79,12.79,0,0,1,26,13.87Z"/><path d="M25.95,14.59A12.79,12.79,0,0,1,21.31,24a8.7,8.7,0,0,0-1.77-2.92,14.23,14.23,0,0,0,1.87-6.52Z"/><path d="M13.37,13.87V10a8.61,8.61,0,0,0,5.69-2.31,13.46,13.46,0,0,1,1.59,6.21Z"/><path d="M20.63,14.59a13.46,13.46,0,0,1-1.66,6,8.6,8.6,0,0,0-5.6-2.22V14.59Z"/><path d="M27.86,14.18A14.85,14.85,0,0,0,17.6,0a.55.55,0,0,0-.34,1A13.78,13.78,0,1,1,4.33,24.91a.55.55,0,1,0-.69.86A14.92,14.92,0,0,0,12.43,29v2.42H10a1.93,1.93,0,0,0-1.78,1.19L7.37,35.8H18.69l-.86-3.14A1.93,1.93,0,0,0,16,31.46H13.53V29A14.89,14.89,0,0,0,27.86,14.18Z"/></g></g></svg>