<svg xmlns="http://www.w3.org/2000/svg" viewBox="0 0 35.75 35.43"><title>gg5</title><g id="Layer_2" data-name="Layer 2"><g id="Layer_1-2" data-name="Layer 1"><path d="M19.53,7a26.3,26.3,0,0,0-.37-3,4.11,4.11,0,0,0-2.21,1A27.4,27.4,0,0,1,19.53,7Z"/><path d="M18.75,8.34a27.43,27.43,0,0,0-3.2.58,4.1,4.1,0,0,0,.51,1.29A16.46,16.46,0,0,1,18.75,8.34Z"/><path d="M18.6,7.42a26.55,26.55,0,0,0-2.3-1.77A4.11,4.11,0,0,0,15.48,8,28.35,28.35,0,0,1,18.6,7.42Z"/><path d="M19.08,12.2l.11-3A18.51,18.51,0,0,0,16.61,11,4.13,4.13,0,0,0,19.08,12.2Z"/><path d="M21.1,7.7a25,25,0,0,1,2.66.39A4.12,4.12,0,0,0,23,5.7,25.53,25.53,0,0,1,21.1,7.7Z"/><path d="M20.13,8.9,20,12.22a4.11,4.11,0,0,0,2.25-.94A22.3,22.3,0,0,0,20.13,8.9Z"/><path d="M21.22,8.66a23.75,23.75,0,0,1,1.7,1.92A4.12,4.12,0,0,0,23.65,9C22.67,8.85,21.84,8.73,21.22,8.66Z"/><path d="M34.55,13.37c.3.28.59.58.88.9a17.82,17.82,0,0,0-5-9.45A16.32,16.32,0,0,1,34.55,13.37Z"/><path d="M18.69,22.49a11.36,11.36,0,0,1-8-3.25,14,14,0,0,0,1,10.58,15.28,15.28,0,0,0,6.61,1.51h0l.32-8.84Z"/><path d="M2,15.93A16.38,16.38,0,0,1,9.2,2.34l-.48-.11A17.68,17.68,0,0,0,.14,19.73,17.73,17.73,0,0,1,2,16.38C2,16.23,2,16.08,2,15.93Z"/><path d="M27.12,18.74a17.43,17.43,0,0,1,.56,3.36,16.53,16.53,0,0,1-1,6.79,15.17,15.17,0,0,0,7-15.1,18.58,18.58,0,0,0-3.53-2.45A11.34,11.34,0,0,1,27.12,18.74Z"/><path d="M20.11,4a27.22,27.22,0,0,1,.36,3,24.57,24.57,0,0,0,1.88-2A4.11,4.11,0,0,0,20.11,4Z"/><path d="M20.15,8.58h0Z"/><path d="M23.54,11.4a22.52,22.52,0,0,1,3.28,6.28,10.43,10.43,0,0,0,2.35-6.6c0-.07,0-.13,0-.2a24,24,0,0,0-4.54-1.61A5.11,5.11,0,0,1,23.54,11.4Z"/><path d="M14.48,8.24s0-.08,0-.13a5.11,5.11,0,0,1,1-3A23.66,23.66,0,0,0,11.81,3.2a10.44,10.44,0,0,0-3.58,7.6A26.71,26.71,0,0,1,14.48,8.24Z"/><path d="M19.29.63c.26.82.46,1.61.62,2.35A5.1,5.1,0,0,1,23,4.23c.45-.58.92-1.23,1.38-2A10.4,10.4,0,0,0,19.29.63Z"/><path d="M26.76,22.16a16.14,16.14,0,0,0-.4-2.66,11.34,11.34,0,0,1-6.71,2.93l-.32,8.84a15.27,15.27,0,0,0,6-1.63A15.83,15.83,0,0,0,26.76,22.16Z"/><path d="M24.61,31.09a16.31,16.31,0,0,1-5.32,1.19l-.11,3.08A17.83,17.83,0,0,0,21.91,35,23.31,23.31,0,0,0,24.61,31.09Z"/><path d="M26.78,3a11.36,11.36,0,0,1,3.28,7.2,20,20,0,0,1,3.28,2.08A15.43,15.43,0,0,0,26.78,3Z"/><path d="M18.36,32.33a16.32,16.32,0,0,1-5.84-1.1,27.71,27.71,0,0,0,2.9,4,17.93,17.93,0,0,0,2.46.19l.37,0Z"/><path d="M11.14,30.63a16.39,16.39,0,0,1-9-12.7A17.16,17.16,0,0,0,.46,21.54,17.88,17.88,0,0,0,14,35,26,26,0,0,1,11.14,30.63Z"/><path d="M34.72,14.88c0,.35.05.69.05,1A16.39,16.39,0,0,1,26,30.45a22.36,22.36,0,0,1-2.52,4.08,17.87,17.87,0,0,0,12.29-17c0-.53,0-1-.08-1.56C35.37,15.6,35,15.23,34.72,14.88Z"/><path d="M10.43,29.09A14.5,14.5,0,0,1,10,18.46a11.35,11.35,0,0,1-2.63-6A18.06,18.06,0,0,0,3,16.57,15.38,15.38,0,0,0,10.43,29.09Z"/><path d="M18.69,21.56h.05L19,13.2a5.11,5.11,0,0,1-3.19-1.6,18.08,18.08,0,0,0-4.78,6.65A10.44,10.44,0,0,0,18.69,21.56Z"/><path d="M12,14.62a21.76,21.76,0,0,1,3.31-3.73,5.11,5.11,0,0,1-.71-1.71,25.28,25.28,0,0,0-6.33,2.7,10.41,10.41,0,0,0,2.14,5.59A17.07,17.07,0,0,1,12,14.62Z"/><path d="M11.64,2.13l.1-.07-.13.06Z"/><path d="M19,3A24.79,24.79,0,0,0,18.3.62a10.41,10.41,0,0,0-5.66,1.92,25.1,25.1,0,0,1,3.44,1.84A5.11,5.11,0,0,1,19,3Z"/><path d="M7.3,11.37c0-.1,0-.19,0-.28a11.36,11.36,0,0,1,3.55-8.25l-.33-.11A15.39,15.39,0,0,0,3,15.06,19.47,19.47,0,0,1,7.3,11.37Z"/><path d="M22.86,12.07A5.1,5.1,0,0,1,20,13.22l-.3,8.29a10.45,10.45,0,0,0,6.4-3A21.56,21.56,0,0,0,22.86,12.07Z"/><path d="M10.3,1.67A16.28,16.28,0,0,1,14.55,0,17.71,17.71,0,0,0,9.93,1.56Z"/><path d="M25.12,2.83c-.5.77-1,1.47-1.49,2.09a5.1,5.1,0,0,1,1.14,3.19c0,.07,0,.13,0,.2a24.61,24.61,0,0,1,4.33,1.47A10.47,10.47,0,0,0,25.12,2.83Z"/></g></g></svg>