<svg xmlns="http://www.w3.org/2000/svg" viewBox="0 0 29.81 37.29"><defs><style>.cls-1{fill:none;stroke:#000;stroke-linecap:round;stroke-miterlimit:10;stroke-width:1.57px;}</style></defs><title>gi1</title><g id="Layer_2" data-name="Layer 2"><g id="Layer_1-2" data-name="Layer 1"><path d="M11.57,33.75h6.74a0,0,0,0,1,0,0v.17a3.37,3.37,0,0,1-3.37,3.37h0a3.37,3.37,0,0,1-3.37-3.37v-.17A0,0,0,0,1,11.57,33.75Z"/><path d="M10.95,27.52h7.88a29.63,29.63,0,0,1,3.3-8.94A8.21,8.21,0,0,0,14.6,6.39a8.52,8.52,0,0,0-7.87,8.06,8.16,8.16,0,0,0,.91,3.9A35.46,35.46,0,0,1,10.95,27.52Z"/><rect x="10.6" y="28.97" width="8.67" height="3.33" rx="1.49" ry="1.49"/><line class="cls-1" x1="0.78" y1="15.02" x2="4.69" y2="15.02"/><line class="cls-1" x1="4.29" y1="5.55" x2="7.06" y2="8.32"/><line class="cls-1" x1="29.02" y1="15.02" x2="25.12" y2="15.02"/><line class="cls-1" x1="25.52" y1="5.55" x2="22.75" y2="8.32"/><line class="cls-1" x1="14.94" y1="0.78" x2="14.94" y2="4.69"/></g></g></svg>