<svg xmlns="http://www.w3.org/2000/svg" viewBox="0 0 29.81 37.29"><title>gi4</title><g id="Layer_2" data-name="Layer 2"><g id="Layer_1-2" data-name="Layer 1"><path d="M17.16,34.75a2.37,2.37,0,0,1-4.44,0h4.44m1.15-1H11.57v.17a3.37,3.37,0,0,0,3.37,3.37h0a3.37,3.37,0,0,0,3.37-3.37v-.17Z"/><path d="M14.94,7.39a7.21,7.21,0,0,1,6.31,10.7A30.93,30.93,0,0,0,18,26.52H11.75A37,37,0,0,0,8.52,17.9a7.21,7.21,0,0,1-.8-3.43,7.49,7.49,0,0,1,6.91-7.08h.3m0-1H14.6a8.52,8.52,0,0,0-7.87,8.06,8.16,8.16,0,0,0,.91,3.9,35.46,35.46,0,0,1,3.31,9.16h7.88a29.63,29.63,0,0,1,3.3-8.94A8.21,8.21,0,0,0,14.94,6.39Z"/><path d="M17.79,30a.49.49,0,0,1,.49.49v.35a.49.49,0,0,1-.49.49H12.09a.49.49,0,0,1-.49-.49v-.35a.49.49,0,0,1,.49-.49h5.69m0-1H12.09a1.49,1.49,0,0,0-1.49,1.49v.35a1.49,1.49,0,0,0,1.49,1.49h5.69a1.49,1.49,0,0,0,1.49-1.49v-.35A1.49,1.49,0,0,0,17.79,29Z"/><path d="M4.69,14.24H.78a.78.78,0,0,0,0,1.57H4.69a.78.78,0,0,0,0-1.57Z"/><path d="M4.29,4.77a.78.78,0,0,0-.55,1.34L6.5,8.87A.78.78,0,0,0,7.61,7.76L4.85,5a.78.78,0,0,0-.55-.23Z"/><path d="M29,14.24H25.12a.78.78,0,0,0,0,1.57H29a.78.78,0,0,0,0-1.57Z"/><path d="M25.52,4.77A.78.78,0,0,0,25,5L22.2,7.76a.78.78,0,1,0,1.11,1.11l2.76-2.76a.78.78,0,0,0-.55-1.34Z"/><path d="M14.94,0a.78.78,0,0,0-.78.78V4.69a.78.78,0,1,0,1.57,0V.78A.78.78,0,0,0,14.94,0Z"/></g></g></svg>