<svg xmlns="http://www.w3.org/2000/svg" viewBox="0 0 27.59 35.83"><defs><style>.cls-1,.cls-4{fill:#fff;}.cls-2{fill:#020202;}.cls-3{stroke:#fff;}.cls-3,.cls-4{stroke-miterlimit:10;stroke-width:0.49px;}.cls-4{stroke:#000;}</style></defs><title>gi3</title><g id="Layer_2" data-name="Layer 2"><g id="Layer_1-2" data-name="Layer 1"><path d="M8.16,35.37V30.28a3.86,3.86,0,0,0-1.24-2.83l-1.63-1.5A16.8,16.8,0,0,1,3.72,23c-.92-1.94-1.19-2.45-1.54-2.59L.57,19.78a.16.16,0,0,1-.09-.09.16.16,0,0,1,0-.13s2.79-5.93,4.31-9.1a8.07,8.07,0,0,1,3.46-3.7,10.6,10.6,0,0,1,5-1.25c6.25,0,11.33,5.45,11.33,12.15a12.74,12.74,0,0,1-1.84,6.63l-.07.11v0L20,29a6.57,6.57,0,0,0-.87,3.27v3.06Z"/><path d="M13.25,6c6,0,10.87,5.24,10.87,11.69A12.28,12.28,0,0,1,22.35,24l-.14.23h0l-2.6,4.51a7,7,0,0,0-.94,3.5v2.6H8.63V30.28A4.33,4.33,0,0,0,7.24,27.1l-1.63-1.5a19.26,19.26,0,0,1-1.47-2.78c-1-2.17-1.27-2.61-1.78-2.82L1,19.47c.56-1.19,2.86-6.06,4.18-8.81A7.6,7.6,0,0,1,8.47,7.16,10.13,10.13,0,0,1,13.25,6m0-.93A11.11,11.11,0,0,0,8,6.34a8.58,8.58,0,0,0-3.66,3.91C2.85,13.43.07,19.34.07,19.34a.63.63,0,0,0,.32.87L2,20.87c.46.19,2.2,4.71,3,5.42l1.63,1.5A3.39,3.39,0,0,1,7.7,30.28v5.55H19.61V32.31a6.1,6.1,0,0,1,.81-3l2.72-4.73h0a13.19,13.19,0,0,0,1.91-6.87c0-7-5.28-12.62-11.8-12.62Z"/><path d="M20.31,18a1.41,1.41,0,0,1-1.4-1.24h2.78A1.41,1.41,0,0,1,20.31,18Z"/><path class="cls-1" d="M21.39,17a1.16,1.16,0,0,1-2.17,0h2.17m.56-.49h-3.3v.08a1.65,1.65,0,1,0,3.3,0v-.08Z"/><rect x="18.43" y="14.43" width="3.76" height="1.14" rx="0.48" ry="0.48"/><path class="cls-1" d="M21.7,14.67a.24.24,0,0,1,.24.24v.17a.24.24,0,0,1-.24.24H18.91a.24.24,0,0,1-.24-.24v-.17a.24.24,0,0,1,.24-.24H21.7m0-.49H18.91a.73.73,0,0,0-.73.73v.17a.73.73,0,0,0,.73.73H21.7a.73.73,0,0,0,.73-.73v-.17a.73.73,0,0,0-.73-.73Z"/><path class="cls-2" d="M13.38,7.49a.14.14,0,1,1,0-.28h1.91a.14.14,0,0,1,0,.28Z"/><path class="cls-1" d="M15.29,7H13.38a.38.38,0,0,0,0,.77h1.91a.38.38,0,0,0,0-.77Z"/><path class="cls-1" d="M16.45,4.21a.14.14,0,0,1-.1,0L15,2.82a.14.14,0,0,1,0-.1.13.13,0,0,1,0-.1.14.14,0,0,1,.1,0,.14.14,0,0,1,.1,0L16.55,4a.14.14,0,0,1,0,.2A.14.14,0,0,1,16.45,4.21Z"/><path d="M15.1,2.33a.38.38,0,0,0-.27.66l1.35,1.35a.38.38,0,1,0,.54-.54L15.37,2.45a.38.38,0,0,0-.27-.11Z"/><path class="cls-1" d="M25.29,7.49a.14.14,0,1,1,0-.28H27.2a.14.14,0,1,1,0,.28Z"/><path d="M27.2,7H25.29a.38.38,0,1,0,0,.77H27.2a.38.38,0,1,0,0-.77Z"/><path class="cls-1" d="M24.13,4.21a.14.14,0,0,1-.1,0A.14.14,0,0,1,24,4l1.35-1.35a.14.14,0,0,1,.1,0,.14.14,0,0,1,.14.14.14.14,0,0,1,0,.1L24.23,4.17A.14.14,0,0,1,24.13,4.21Z"/><path d="M25.49,2.33a.38.38,0,0,0-.27.11L23.86,3.8a.38.38,0,1,0,.54.54L25.76,3a.38.38,0,0,0-.27-.66Z"/><path class="cls-1" d="M20.31,2.44a.14.14,0,0,1-.14-.14V.38a.14.14,0,0,1,.28,0V2.3A.14.14,0,0,1,20.31,2.44Z"/><path d="M20.31,0a.38.38,0,0,0-.38.38V2.3a.38.38,0,0,0,.77,0V.38A.38.38,0,0,0,20.31,0Z"/><path class="cls-3" d="M16.48,6"/><path class="cls-3" d="M16.48,6a3.63,3.63,0,0,0-.19,1A4,4,0,0,0,16.73,9a17.36,17.36,0,0,1,1.62,4.49h3.86a13.66,13.66,0,0,1,.67-2.36"/><path class="cls-1" d="M23.82,9.09a15.54,15.54,0,0,0-.94,2h0a15.74,15.74,0,0,1,.75-1.57A4,4,0,0,0,24,8.82C23.91,8.92,23.87,9,23.82,9.09Z"/><path d="M24,8.82c0,.09-.08.18-.13.27a15.54,15.54,0,0,0-.94,2h0a15.74,15.74,0,0,1,.75-1.57A4,4,0,0,0,24,8.82Z"/><path class="cls-1" d="M16.46,6h0l0-.07Z"/><path d="M16.5,6l0,.07h0l0-.07Z"/><path class="cls-4" d="M24,8.82a4,4,0,0,0-4-5.23A4.17,4.17,0,0,0,16.5,6l0,.07a11.91,11.91,0,0,1,6.41,5.07,15.54,15.54,0,0,1,.94-2C23.87,9,23.91,8.92,24,8.82Z"/></g></g></svg>