<svg xmlns="http://www.w3.org/2000/svg" viewBox="0 0 40.23 35.75"><defs><style>.cls-1{fill:#fff;}.cls-2{fill:none;stroke:#000;stroke-linecap:round;stroke-miterlimit:10;stroke-width:1.38px;stroke-dasharray:3;}</style></defs><title>gp1</title><g id="Layer_2" data-name="Layer 2"><g id="Layer_1-2" data-name="Layer 1"><path class="cls-1" d="M4.77,24.49V22a5.31,5.31,0,0,0-.71-2.64l-2.2-3.83A10.29,10.29,0,0,1,.37,10.19C.37,4.78,4.48.38,9.53.38a8.56,8.56,0,0,1,4,1,6.52,6.52,0,0,1,2.79,3c1.23,2.56,3.48,7.34,3.48,7.34a.14.14,0,0,1,0,.12.13.13,0,0,1-.07.08l-1.31.53c-.28.12-.5.52-1.24,2.09A13.53,13.53,0,0,1,16,16.88l-1.31,1.21a3.12,3.12,0,0,0-1,2.29v4.11Z"/><path d="M9.53.75a8.18,8.18,0,0,1,3.86,1A6.14,6.14,0,0,1,16,4.53c1.06,2.21,2.9,6.11,3.37,7.12l-1.07.44c-.41.17-.61.52-1.44,2.28a15.62,15.62,0,0,1-1.19,2.24l-1.31,1.21a3.49,3.49,0,0,0-1.12,2.56v3.74H5.14V22a5.68,5.68,0,0,0-.76-2.83l-2.1-3.64v0l-.11-.18A9.91,9.91,0,0,1,.75,10.19C.75,5,4.69.75,9.53.75m0-.75C4.27,0,0,4.56,0,10.19a10.65,10.65,0,0,0,1.54,5.55h0l2.2,3.82A4.92,4.92,0,0,1,4.39,22v2.85H14V20.38a2.74,2.74,0,0,1,.88-2l1.31-1.21c.62-.58,2-4.23,2.4-4.38l1.31-.53a.51.51,0,0,0,.26-.7S17.93,6.77,16.7,4.21a6.93,6.93,0,0,0-3-3.16A9,9,0,0,0,9.53,0Z"/><path class="cls-1" d="M26.59,35.38V31.27a3.12,3.12,0,0,0-1-2.29l-1.31-1.21A13.58,13.58,0,0,1,23,25.41c-.74-1.56-1-2-1.24-2.09l-1.31-.53a.13.13,0,0,1-.07-.08.13.13,0,0,1,0-.11s2.25-4.79,3.48-7.35a6.51,6.51,0,0,1,2.79-3,8.56,8.56,0,0,1,4-1c5,0,9.15,4.4,9.15,9.82a10.3,10.3,0,0,1-1.49,5.35l-.05.09h0l-2.15,3.73a5.31,5.31,0,0,0-.71,2.64v2.47Z"/><path d="M30.7,11.64c4.84,0,8.78,4.23,8.78,9.44A9.91,9.91,0,0,1,38,26.23l-.11.19h0l-2.1,3.64a5.68,5.68,0,0,0-.76,2.83V35H27V31.27a3.49,3.49,0,0,0-1.12-2.56l-1.31-1.21a15.55,15.55,0,0,1-1.19-2.24c-.83-1.75-1-2.11-1.44-2.28l-1.07-.44c.45-1,2.31-4.9,3.37-7.12a6.14,6.14,0,0,1,2.63-2.82,8.18,8.18,0,0,1,3.86-1m0-.75a9,9,0,0,0-4.21,1,6.93,6.93,0,0,0-3,3.16c-1.23,2.56-3.48,7.34-3.48,7.34a.51.51,0,0,0,.26.7l1.31.53c.37.15,1.77,3.8,2.4,4.38l1.31,1.21a2.74,2.74,0,0,1,.88,2v4.49h9.62V32.9a4.92,4.92,0,0,1,.66-2.46l2.2-3.82h0a10.65,10.65,0,0,0,1.54-5.55c0-5.63-4.27-10.19-9.53-10.19Z"/><path class="cls-2" d="M23.57,29.08s-17.83,3-15-18.19"/><path class="cls-2" d="M32.34,19.42S35.83,1.69,14.59,3.89"/></g></g></svg>