<svg xmlns="http://www.w3.org/2000/svg" viewBox="0 0 40.14 35.55"><defs><style>.cls-1{fill:#fff;}</style></defs><title>gp2</title><g id="Layer_2" data-name="Layer 2"><g id="Layer_1-2" data-name="Layer 1"><path d="M35.08,6A9.91,9.91,0,0,0,30.86,1.5a12.83,12.83,0,0,0-6-1.5C17.31,0,11.21,6.52,11.21,14.57a15.22,15.22,0,0,0,2.2,7.93h0L16.55,28a7,7,0,0,1,.94,3.51v4.07H31.25V29.14a3.91,3.91,0,0,1,1.26-2.88l1.88-1.73c.89-.82,2.9-6,3.43-6.26l1.87-.76a.72.72,0,0,0,.37-1S36.85,9.68,35.08,6Z"/><path class="cls-1" d="M9.14,35.3V29.14A4.17,4.17,0,0,0,7.8,26.08L5.92,24.35A18.39,18.39,0,0,1,4,20.89c-.93-2-1.31-2.72-1.62-2.84L.54,17.28a.47.47,0,0,1-.24-.65s3.22-6.84,5-10.5A9.6,9.6,0,0,1,9.4,1.72,12.51,12.51,0,0,1,15.31.25c7.37,0,13.37,6.42,13.37,14.32a15,15,0,0,1-2.17,7.8l0,.06v0l-3.11,5.4a7.31,7.31,0,0,0-1,3.64V35.3Z"/><path d="M15.31.5c7.24,0,13.12,6.31,13.12,14.07a14.75,14.75,0,0,1-2.13,7.67l-.07.13h0l-3.07,5.34a7.55,7.55,0,0,0-1,3.76v3.57H9.39V29.14A4.42,4.42,0,0,0,8,25.9L6.09,24.17a19.29,19.29,0,0,1-1.82-3.38c-1.05-2.23-1.36-2.81-1.75-3L.64,17.05a.22.22,0,0,1-.12-.13.24.24,0,0,1,0-.2c0-.07,3.23-6.87,5-10.49a9.34,9.34,0,0,1,4-4.29A12.26,12.26,0,0,1,15.31.5m0-.5a12.83,12.83,0,0,0-6,1.5A9.91,9.91,0,0,0,5.06,6c-1.76,3.67-5,10.5-5,10.5a.72.72,0,0,0,.37,1l1.87.76c.53.21,2.54,5.43,3.43,6.26l1.88,1.73a3.91,3.91,0,0,1,1.26,2.88v6.41H22.65V31.48A7,7,0,0,1,23.59,28l3.14-5.46h0a15.23,15.23,0,0,0,2.2-7.93c0-8-6.1-14.57-13.62-14.57Z"/><polygon points="15.05 25.31 16.11 27.15 24.03 27.15 25.08 25.31 15.05 25.31"/><polygon points="13.51 22.64 14.56 24.47 25.57 24.47 26.62 22.64 13.51 22.64"/><path d="M13,21.79H27.09A15.05,15.05,0,0,0,27.93,20H12.2A15.05,15.05,0,0,0,13,21.79Z"/><rect x="17.49" y="33.35" width="5.16" height="1.83"/><path d="M17.44,30.67a7,7,0,0,1,.05.76V32.5h5.16V31.43a7,7,0,0,1,.05-.76Z"/><path d="M17.29,29.83h5.55A7,7,0,0,1,23.55,28h-7A7,7,0,0,1,17.29,29.83Z"/><path d="M11.33,16.44H28.8a15.54,15.54,0,0,0,.12-1.83H11.21A15.54,15.54,0,0,0,11.33,16.44Z"/><path d="M12.48,8.4H27.65a14.81,14.81,0,0,0-1-1.83H13.44A14.8,14.8,0,0,0,12.48,8.4Z"/><path d="M15.55,3.89A14.34,14.34,0,0,0,14,5.72H26.14a14.34,14.34,0,0,0-1.55-1.83Z"/><path d="M16.46,3h7.21a13.5,13.5,0,0,0-2.88-1.83H19.34A13.5,13.5,0,0,0,16.46,3Z"/><path d="M11.43,11.92a15.53,15.53,0,0,0-.2,1.83H28.9a15.53,15.53,0,0,0-.2-1.83Z"/><path d="M11.46,17.28a15.24,15.24,0,0,0,.45,1.83H28.22a15.24,15.24,0,0,0,.45-1.83Z"/><path d="M12.14,9.24a15.13,15.13,0,0,0-.55,1.83H28.54A15.13,15.13,0,0,0,28,9.24Z"/></g></g></svg>