<svg xmlns="http://www.w3.org/2000/svg" viewBox="0 0 27.81 32.78"><defs><style>.cls-1,.cls-2,.cls-3,.cls-4{fill:none;stroke:#000;stroke-miterlimit:10;}.cls-1,.cls-2,.cls-4{stroke-linecap:round;}.cls-1{stroke-width:1.42px;}.cls-2{stroke-width:0.69px;}</style></defs><title>gpod2</title><g id="Layer_2" data-name="Layer 2"><g id="Layer_1-2" data-name="Layer 1"><path class="cls-1" d="M8.22,20.65a8.82,8.82,0,1,1,11.45-.06"/><path class="cls-1" d="M8.21,25.81a13.19,13.19,0,1,1,11.46,0"/><path d="M11.15,21.71v4.06a2.79,2.79,0,0,0,5.57,0V21.71Z"/><path d="M16.72,20.75V16.69a2.79,2.79,0,0,0-5.57,0v4.06Z"/><path class="cls-2" d="M10,21.71v3.82a3.88,3.88,0,0,0,3.88,3.88h0a3.88,3.88,0,0,0,3.88-3.88V21.71"/><line class="cls-3" x1="13.91" y1="29.41" x2="13.91" y2="32.28"/><line class="cls-4" x1="11.15" y1="32.28" x2="16.72" y2="32.28"/></g></g></svg>