<svg xmlns="http://www.w3.org/2000/svg" viewBox="0 0 39.4 30.54"><defs><style>.cls-1{fill:#fff;}.cls-2,.cls-3,.cls-4,.cls-5{fill:none;stroke:#000;stroke-miterlimit:10;}.cls-2,.cls-3,.cls-5{stroke-linecap:round;}.cls-2{stroke-width:0.59px;}.cls-3{stroke-width:0.29px;}.cls-4,.cls-5{stroke-width:0.41px;}</style></defs><title>gpod3</title><g id="Layer_2" data-name="Layer 2"><g id="Layer_1-2" data-name="Layer 1"><rect x="2.48" width="33.68" height="19.58" rx="4.05" ry="4.05"/><rect class="cls-1" x="4.67" y="1.27" width="29.3" height="17.04" rx="3.52" ry="3.52"/><path d="M36,30.54H3.35c-2.37,0-3.8-1.3-3.23-2.83l2-5.26c.44-1.17,2.34-2.08,4.27-2.08H33c1.93,0,3.84.91,4.27,2.08l2,5.26C39.85,29.23,38.41,30.54,36,30.54Z"/><path class="cls-2" d="M17.34,11.7a3.66,3.66,0,1,1,4.75,0"/><path class="cls-2" d="M17.34,13.84a5.47,5.47,0,1,1,4.75,0"/><path d="M18.56,12.14v1.68a1.16,1.16,0,0,0,2.31,0V12.14Z"/><path d="M20.87,11.74V10.06a1.16,1.16,0,0,0-2.31,0v1.68Z"/><path class="cls-3" d="M18.09,12.14v1.58a1.61,1.61,0,0,0,1.61,1.61h0a1.61,1.61,0,0,0,1.61-1.61V12.14"/><line class="cls-4" x1="19.7" y1="15.33" x2="19.7" y2="16.52"/><line class="cls-5" x1="18.56" y1="16.52" x2="20.87" y2="16.52"/><circle class="cls-1" cx="12.78" cy="23.61" r="0.76"/><circle class="cls-1" cx="17.14" cy="23.61" r="0.76"/><circle class="cls-1" cx="21.5" cy="23.61" r="0.76"/><circle class="cls-1" cx="25.86" cy="23.61" r="0.76"/><circle class="cls-1" cx="30.21" cy="23.61" r="0.76"/><circle class="cls-1" cx="8.43" cy="23.61" r="0.76"/><circle class="cls-1" cx="12.78" cy="26.96" r="0.76"/><circle class="cls-1" cx="17.14" cy="26.96" r="0.76"/><circle class="cls-1" cx="21.5" cy="26.96" r="0.76"/><circle class="cls-1" cx="25.86" cy="26.96" r="0.76"/><circle class="cls-1" cx="30.21" cy="26.96" r="0.76"/><circle class="cls-1" cx="8.43" cy="26.96" r="0.76"/></g></g></svg>