<svg xmlns="http://www.w3.org/2000/svg" viewBox="0 0 18.79 38.75"><defs><style>.cls-1{fill:none;stroke:#000;stroke-linecap:round;stroke-miterlimit:10;stroke-width:3px;}</style></defs><title>gs1</title><g id="Layer_2" data-name="Layer 2"><g id="Layer_1-2" data-name="Layer 1"><path class="cls-1" d="M14.38,23c3.82,4.72,2.78,14.29,2.78,14.29"/><path class="cls-1" d="M1.52,1.5s-.46,11,3,16.24"/><path class="cls-1" d="M17.27,1.5s.79,18.89-7.35,18.89c-10.12,0-8.3,16.86-8.3,16.86"/><path d="M13.16,13.77a14,14,0,0,0,.52-1.69H5.12a14,14,0,0,0,.52,1.69Z"/><path d="M4.38,4.69c0,.51,0,1.08,0,1.69h10c0-.61,0-1.18,0-1.69Z"/><path d="M4.54,8.38c.05.56.12,1.13.2,1.69h9.32c.08-.57.15-1.13.2-1.69Z"/><path d="M6.74,15.77a3.29,3.29,0,0,0,5.32,0Z"/><path d="M13.16,26.8a14,14,0,0,1,.52,1.69H5.12a14,14,0,0,1,.52-1.69Z"/><path d="M4.38,35.88c0-.51,0-1.08,0-1.69h10c0,.61,0,1.18,0,1.69Z"/><path d="M4.54,32.18c.05-.56.12-1.13.2-1.69h9.32c.08.57.15,1.13.2,1.69Z"/><path d="M6.74,24.8a3.29,3.29,0,0,1,5.32,0Z"/></g></g></svg>