<svg xmlns="http://www.w3.org/2000/svg" viewBox="0 0 39.5 31.93"><defs><style>.cls-1{fill:#fff;}</style></defs><title>gs2</title><g id="Layer_2" data-name="Layer 2"><g id="Layer_1-2" data-name="Layer 1"><path d="M14.34,4.8,18.25,22l.54-7.62H39a11.79,11.79,0,0,0-.8-8.76c-3.45-6.54-12-8.56-18.34.29C10.29-4.72,0,1.09,0,12.06a12,12,0,0,0,.5,3.4H11.85Z"/><path d="M19.72,15.4l-.95,13.44L14.33,9.26l-1.68,7.21H.84c3.78,9.8,19,15.46,19,15.46s12.31-5.68,17.62-14.1a13.3,13.3,0,0,0,1.2-2.43Z"/><path class="cls-1" d="M14.33,9.26l4.44,19.59.95-13.44h19q.18-.49.33-1H18.78L18.25,22,14.34,4.8,11.85,15.46H.5q.15.51.34,1h11.8Z"/></g></g></svg>