<svg xmlns="http://www.w3.org/2000/svg" viewBox="0 0 27.29 39.17"><defs><style>.cls-1{stroke:#fff;stroke-miterlimit:10;stroke-width:0.43px;}</style></defs><title>gs3</title><g id="Layer_2" data-name="Layer 2"><g id="Layer_1-2" data-name="Layer 1"><rect x="1.61" y="36.3" width="23.92" height="2.86"/><path d="M25.53,35.79c-2.41-3.13-6.86-5-12-5s-9.55,1.86-12,5Z"/><rect y="25.71" width="10.67" height="1.7"/><path d="M14,33.48A12.69,12.69,0,0,1,3.18,27.32l2.58-1.54a9.62,9.62,0,1,0,10.1-14.36l.57-2.95a12.62,12.62,0,0,1-2.4,25Z"/><rect x="8.51" y="6.18" width="17.79" height="6.82" rx="2.59" ry="2.59" transform="translate(-1.68 15.11) rotate(-45)"/><path d="M9.79,15.58H11.5a0,0,0,0,1,0,0v3.48a0,0,0,0,1,0,0H9.79a1.32,1.32,0,0,1-1.32-1.32V16.9A1.32,1.32,0,0,1,9.79,15.58Z" transform="translate(-9.32 12.13) rotate(-45)"/><path d="M23.44.23H25.8a1.27,1.27,0,0,1,1.27,1.27V2.58A1.27,1.27,0,0,1,25.8,3.85H23.44a0,0,0,0,1,0,0V.23a0,0,0,0,1,0,0Z" transform="translate(5.96 18.46) rotate(-45)"/><circle class="cls-1" cx="20.13" cy="11.54" r="1.11"/></g></g></svg>