<svg xmlns="http://www.w3.org/2000/svg" viewBox="0 0 38.04 37.03"><defs><style>.cls-1,.cls-2,.cls-4,.cls-5{stroke:#000;stroke-miterlimit:10;}.cls-1,.cls-2{stroke-width:2px;}.cls-2,.cls-3,.cls-4{fill:#fff;}.cls-2{stroke-linecap:round;}.cls-4,.cls-5{stroke-width:0.25px;}.cls-5{fill:none;stroke-linecap:square;}</style></defs><title>gt2</title><g id="Layer_2" data-name="Layer 2"><g id="Layer_1-2" data-name="Layer 1"><rect class="cls-1" x="5.4" y="5.01" width="26.93" height="26.93" rx="3.73" ry="3.73"/><line class="cls-2" x1="12.39" y1="1" x2="12.39" y2="5.01"/><line class="cls-2" x1="16.71" y1="1" x2="16.71" y2="5.01"/><line class="cls-2" x1="21.02" y1="1" x2="21.02" y2="5.01"/><line class="cls-2" x1="25.34" y1="1" x2="25.34" y2="5.01"/><line class="cls-2" x1="12.39" y1="32.02" x2="12.39" y2="36.03"/><line class="cls-2" x1="16.71" y1="32.02" x2="16.71" y2="36.03"/><line class="cls-2" x1="21.02" y1="32.02" x2="21.02" y2="36.03"/><line class="cls-2" x1="25.34" y1="32.02" x2="25.34" y2="36.03"/><line class="cls-2" x1="33.03" y1="24.95" x2="37.04" y2="24.95"/><line class="cls-2" x1="33.03" y1="20.63" x2="37.04" y2="20.63"/><line class="cls-2" x1="33.03" y1="16.31" x2="37.04" y2="16.31"/><line class="cls-2" x1="33.03" y1="12" x2="37.04" y2="12"/><line class="cls-2" x1="1" y1="24.95" x2="5.01" y2="24.95"/><line class="cls-2" x1="1" y1="20.63" x2="5.01" y2="20.63"/><line class="cls-2" x1="1" y1="16.31" x2="5.01" y2="16.31"/><line class="cls-2" x1="1" y1="12" x2="5.01" y2="12"/><rect class="cls-3" x="11.34" y="12.89" width="15.37" height="11.26" rx="1.51" ry="1.51"/><circle class="cls-4" cx="16.1" cy="16.77" r="0.92"/><circle class="cls-4" cx="19.02" cy="18.52" r="0.92"/><circle class="cls-4" cx="21.94" cy="16.86" r="0.92"/><circle class="cls-4" cx="21.94" cy="20.35" r="0.92"/><circle class="cls-4" cx="16.1" cy="20.35" r="0.92"/><line class="cls-5" x1="19.02" y1="17.6" x2="19.02" y2="12.89"/><polyline class="cls-5" points="21.02 20.35 18.69 20.35 15.43 24.15"/><polyline class="cls-5" points="22.85 16.32 24.53 16.32 24.53 20.91 26.7 20.91"/><polyline class="cls-5" points="15.18 16.77 12.94 16.77 11.34 18.47"/><line class="cls-5" x1="15.18" y1="20.35" x2="11.34" y2="20.35"/></g></g></svg>