<svg xmlns="http://www.w3.org/2000/svg" viewBox="0 0 28.36 21.05"><defs><style>.cls-1{fill:#fff;}</style></defs><title>gt3</title><g id="Layer_2" data-name="Layer 2"><g id="Layer_1-2" data-name="Layer 1"><path d="M14.66,9a.48.48,0,0,0,0-.08V.5a.5.5,0,0,0-1,0V8.89a.48.48,0,0,0,0,.08,1.63,1.63,0,1,0,1,0Zm-.48,2.18a.63.63,0,1,1,.63-.63A.63.63,0,0,1,14.18,11.15Z"/><path d="M19.38,12.15a1.62,1.62,0,0,0-1.55,1.15l-.08,0H13.6a.5.5,0,0,0-.38.17L7.41,20.22a.5.5,0,0,0,.76.65l5.66-6.59h3.92l.08,0a1.63,1.63,0,1,0,1.55-2.11Zm0,2.26a.63.63,0,1,1,.63-.63A.63.63,0,0,1,19.38,14.41Z"/><path d="M27.86,14.28H24.5V6.6a.5.5,0,0,0-.5-.5H20.08a1.67,1.67,0,1,0,.85,1H23.5v7.68a.5.5,0,0,0,.5.5h3.86a.5.5,0,0,0,0-1ZM19.38,8.2A.63.63,0,1,1,20,7.57.63.63,0,0,1,19.38,8.2Z"/><path d="M9,5.79A1.62,1.62,0,0,0,7.43,6.93l-.08,0h-4A.5.5,0,0,0,3,7.07l-2.85,3a.5.5,0,0,0,.73.69l2.7-2.87H7.35l.08,0A1.63,1.63,0,1,0,9,5.79ZM9,8a.63.63,0,1,1,.63-.63A.63.63,0,0,1,9,8Z"/><path d="M9,12.15A1.62,1.62,0,0,0,7.43,13.3l-.08,0H.5a.5.5,0,0,0,0,1H7.35l.08,0A1.63,1.63,0,1,0,9,12.15Zm0,2.26a.63.63,0,1,1,.63-.63A.63.63,0,0,1,9,14.41Z"/><path d="M10.61,0a.5.5,0,0,0-.5.5V3.66H6.47a1.63,1.63,0,1,0,0,1h4.14a.5.5,0,0,0,.5-.5V.5A.5.5,0,0,0,10.61,0ZM4.92,4.79a.63.63,0,1,1,.63-.63A.63.63,0,0,1,4.92,4.79Z"/><path d="M4.92,16.18a1.62,1.62,0,0,0-1.54,1.13l-2.89,0a.5.5,0,0,0,0,1h0l2.87,0a1.63,1.63,0,1,0,1.54-2.13Zm0,2.26a.63.63,0,1,1,.63-.63A.63.63,0,0,1,4.92,18.44Z"/><line class="cls-1" x1="16.36" y1="17.81" x2="27.86" y2="17.81"/><path d="M27.86,17.31H16.73a1.63,1.63,0,1,0,0,1H27.86a.5.5,0,0,0,0-1ZM15.19,18.44a.63.63,0,1,1,.63-.63A.63.63,0,0,1,15.19,18.44Z"/><path d="M27.63,1.19a.5.5,0,0,0-.71-.06L24.79,2.94H19.62l-.08,0a1.63,1.63,0,1,0,0,1l.08,0H25a.5.5,0,0,0,.32-.12l2.27-1.93A.5.5,0,0,0,27.63,1.19ZM18,4.07a.63.63,0,1,1,.63-.63A.63.63,0,0,1,18,4.07Z"/></g></g></svg>