<svg xmlns="http://www.w3.org/2000/svg" viewBox="0 0 34.86 29.67"><defs><style>.cls-1,.cls-2{fill:#fff;}.cls-1{stroke:#000;stroke-miterlimit:10;}</style></defs><title>gt4</title><g id="Layer_2" data-name="Layer 2"><g id="Layer_1-2" data-name="Layer 1"><rect class="cls-1" x="0.5" y="0.5" width="33.86" height="28.67" rx="4.46" ry="4.46"/><path d="M17.91,13.29a.48.48,0,0,0,0-.08V4.81a.5.5,0,0,0-1,0v8.39a.48.48,0,0,0,0,.08,1.63,1.63,0,1,0,1,0Zm-.48,2.18a.63.63,0,1,1,.63-.63A.63.63,0,0,1,17.43,15.47Z"/><path d="M22.63,16.47a1.62,1.62,0,0,0-1.55,1.15l-.08,0H16.85a.5.5,0,0,0-.38.17l-5.81,6.76a.5.5,0,0,0,.76.65l5.66-6.59H21l.08,0a1.63,1.63,0,1,0,1.55-2.11Zm0,2.26a.63.63,0,1,1,.63-.63A.63.63,0,0,1,22.63,18.73Z"/><path d="M31.11,18.59H27.75V10.91a.5.5,0,0,0-.5-.5H23.33a1.67,1.67,0,1,0,.85,1h2.56v7.68a.5.5,0,0,0,.5.5h3.86a.5.5,0,1,0,0-1Zm-8.48-6.08a.63.63,0,1,1,.63-.63A.63.63,0,0,1,22.63,12.51Z"/><path d="M12.23,10.1a1.62,1.62,0,0,0-1.55,1.15l-.08,0h-4a.5.5,0,0,0-.36.16l-2.85,3a.5.5,0,0,0,.73.69l2.7-2.87H10.6l.08,0a1.63,1.63,0,1,0,1.55-2.11Zm0,2.26a.63.63,0,1,1,.63-.63A.63.63,0,0,1,12.23,12.36Z"/><path d="M12.23,16.47a1.62,1.62,0,0,0-1.55,1.15l-.08,0H3.75a.5.5,0,1,0,0,1H10.6l.08,0a1.63,1.63,0,1,0,1.55-2.11Zm0,2.26a.63.63,0,1,1,.63-.63A.63.63,0,0,1,12.23,18.73Z"/><path d="M13.86,4.31a.5.5,0,0,0-.5.5V8H9.72a1.63,1.63,0,1,0,0,1h4.14a.5.5,0,0,0,.5-.5V4.81A.5.5,0,0,0,13.86,4.31ZM8.18,9.1a.63.63,0,1,1,.63-.63A.63.63,0,0,1,8.18,9.1Z"/><path d="M8.18,20.5a1.62,1.62,0,0,0-1.54,1.13l-2.89,0a.5.5,0,0,0,0,1h0l2.87,0A1.63,1.63,0,1,0,8.18,20.5Zm0,2.26a.63.63,0,1,1,.63-.63A.63.63,0,0,1,8.18,22.76Z"/><line class="cls-2" x1="19.61" y1="22.13" x2="31.11" y2="22.13"/><path d="M31.11,21.63H20a1.63,1.63,0,1,0,0,1H31.11a.5.5,0,1,0,0-1ZM18.44,22.76a.63.63,0,1,1,.63-.63A.63.63,0,0,1,18.44,22.76Z"/><path d="M30.88,5.5a.5.5,0,0,0-.71-.06L28,7.26H22.87l-.08,0a1.63,1.63,0,1,0,0,1l.08,0h5.36a.5.5,0,0,0,.32-.12L30.83,6.2A.5.5,0,0,0,30.88,5.5ZM21.24,8.39a.63.63,0,1,1,.63-.63A.63.63,0,0,1,21.24,8.39Z"/></g></g></svg>