<svg xmlns="http://www.w3.org/2000/svg" viewBox="0 0 33.86 28.67"><title>gt5</title><g id="Layer_2" data-name="Layer 2"><g id="Layer_1-2" data-name="Layer 1"><circle cx="16.93" cy="14.34" r="0.63"/><circle cx="7.68" cy="21.63" r="0.63"/><circle cx="11.73" cy="17.6" r="0.63"/><circle cx="11.73" cy="11.23" r="0.63"/><circle cx="7.68" cy="7.97" r="0.63"/><circle cx="22.13" cy="17.6" r="0.63"/><circle cx="22.13" cy="11.38" r="0.63"/><circle cx="20.74" cy="7.26" r="0.63"/><circle cx="17.94" cy="21.63" r="0.63"/><path d="M29.4,0H4.46A4.46,4.46,0,0,0,0,4.46V24.21a4.46,4.46,0,0,0,4.46,4.46H29.4a4.46,4.46,0,0,0,4.46-4.46V4.46A4.46,4.46,0,0,0,29.4,0ZM20.74,5.63a1.62,1.62,0,0,1,1.55,1.15l.08,0h5.17l2.13-1.82a.5.5,0,0,1,.65.76L28.05,7.64a.5.5,0,0,1-.32.12H22.37l-.08,0a1.63,1.63,0,1,1-1.55-2.11Zm-4.3,7.16a.48.48,0,0,1,0-.08V4.31a.5.5,0,0,1,1,0v8.39a.48.48,0,0,1,0,.08,1.63,1.63,0,1,1-1,0ZM7.68,6.34A1.62,1.62,0,0,1,9.22,7.47h3.64V4.31a.5.5,0,0,1,1,0V8a.5.5,0,0,1-.5.5H9.22A1.63,1.63,0,1,1,7.68,6.34ZM2.89,13.92l2.85-3a.5.5,0,0,1,.36-.16h4l.08,0a1.63,1.63,0,1,1,0,1l-.08,0H6.32L3.62,14.6a.5.5,0,0,1-.73-.69Zm.36,3.18H10.1l.08,0a1.63,1.63,0,1,1,0,1l-.08,0H3.25a.5.5,0,1,1,0-1Zm4.42,6.16a1.62,1.62,0,0,1-1.54-1.13l-2.87,0h0a.5.5,0,0,1,0-1l2.89,0a1.63,1.63,0,1,1,1.54,2.13Zm2.87,1.6a.5.5,0,0,1-.38-.83L16,17.27a.5.5,0,0,1,.38-.17H20.5l.08,0a1.63,1.63,0,1,1,0,1l-.08,0H16.58l-5.66,6.59A.5.5,0,0,1,10.54,24.86Zm20.07-2.73H19.48a1.63,1.63,0,1,1,0-1H30.61a.5.5,0,0,1,0,1Zm0-3H26.75a.5.5,0,0,1-.5-.5V10.91H23.68a1.61,1.61,0,0,1,.08.47,1.65,1.65,0,1,1-.93-1.47h3.92a.5.5,0,0,1,.5.5v7.68h3.36a.5.5,0,0,1,0,1Z"/></g></g></svg>