<svg xmlns="http://www.w3.org/2000/svg" viewBox="0 0 40.79 19.99"><defs><style>.cls-1{fill:#fff;}</style></defs><title>gt6</title><g id="Layer_2" data-name="Layer 2"><g id="Layer_1-2" data-name="Layer 1"><path class="cls-1" d="M3.69,19.83V17.7a4.12,4.12,0,0,0-.55-2.05L1.38,12.58A8.45,8.45,0,0,1,.16,8.19a7.79,7.79,0,0,1,7.5-8A7,7,0,0,1,11,1a5.38,5.38,0,0,1,2.3,2.47c1,2.06,2.8,5.9,2.8,5.9a.24.24,0,0,1,0,.2.24.24,0,0,1-.14.14l-1.05.43c-.18.08-.39.48-.92,1.61a10.37,10.37,0,0,1-1.05,1.94l-1.06,1a2.37,2.37,0,0,0-.76,1.74v3.44Z"/><path d="M7.66.32a6.85,6.85,0,0,1,3.24.81,5.21,5.21,0,0,1,2.23,2.39c1,2.06,2.8,5.9,2.8,5.91a.08.08,0,0,1,0,.11L14.84,10c-.23.1-.4.41-1,1.69a10.94,10.94,0,0,1-1,1.89l-1.06,1a2.53,2.53,0,0,0-.81,1.86v3.28H3.86v-2a4.29,4.29,0,0,0-.57-2.14l-1.72-3h0l0-.08A8.25,8.25,0,0,1,.32,8.19,7.62,7.62,0,0,1,7.66.32m0-.32A7.94,7.94,0,0,0,0,8.19a8.56,8.56,0,0,0,1.24,4.46h0L3,15.72a4,4,0,0,1,.53,2V20h7.73V16.38A2.2,2.2,0,0,1,12,14.77l1.06-1c.5-.46,1.63-3.4,1.93-3.52L16,9.85a.41.41,0,0,0,.21-.56s-1.81-3.84-2.8-5.9A5.57,5.57,0,0,0,11,.84,7.21,7.21,0,0,0,7.66,0Z"/><path class="cls-1" d="M29.69,19.83V16.38a2.37,2.37,0,0,0-.76-1.74l-1.06-1a10.38,10.38,0,0,1-1.05-1.94c-.54-1.13-.74-1.53-.92-1.61L24.84,9.7a.24.24,0,0,1-.12-.34s1.81-3.84,2.8-5.91A5.36,5.36,0,0,1,29.82,1,7,7,0,0,1,33.13.16a7.79,7.79,0,0,1,7.5,8,8.41,8.41,0,0,1-1.22,4.37l-1.77,3.08a4.12,4.12,0,0,0-.55,2.05v2.13Z"/><path d="M33.13.32a7.62,7.62,0,0,1,7.33,7.87,8.25,8.25,0,0,1-1.19,4.29l0,.08h0l-1.72,3a4.29,4.29,0,0,0-.57,2.14v2H29.85V16.38A2.53,2.53,0,0,0,29,14.53l-1.06-1a10.94,10.94,0,0,1-1-1.89c-.61-1.28-.77-1.59-1-1.69L24.9,9.55a.08.08,0,0,1,0,0,.09.09,0,0,1,0-.08s1.8-3.84,2.8-5.9a5.21,5.21,0,0,1,2.23-2.39A6.85,6.85,0,0,1,33.13.32m0-.32a7.21,7.21,0,0,0-3.39.84,5.57,5.57,0,0,0-2.38,2.54c-1,2.06-2.8,5.9-2.8,5.9a.41.41,0,0,0,.21.56l1.05.43c.3.12,1.43,3.05,1.93,3.52l1.06,1a2.2,2.2,0,0,1,.71,1.62V20h7.73V17.7a4,4,0,0,1,.53-2l1.77-3.07h0a8.56,8.56,0,0,0,1.24-4.46A7.94,7.94,0,0,0,33.13,0Z"/><path d="M20.41,15.43a.18.18,0,0,0,0,0V12.24a.19.19,0,1,0-.38,0V15.4a.18.18,0,0,0,0,0,.61.61,0,1,0,.36,0Zm-.18.82a.24.24,0,1,1,.24-.24A.24.24,0,0,1,20.23,16.25Z"/><path d="M22.18,16.62a.61.61,0,0,0-.58.43H20a.19.19,0,0,0-.14.07l-2.19,2.55a.19.19,0,0,0,.29.25l2.13-2.48H21.6a.61.61,0,1,0,.58-.8Zm0,.85a.24.24,0,1,1,.24-.24A.24.24,0,0,1,22.18,17.47Z"/><path d="M25.38,17.42H24.11V14.53a.19.19,0,0,0-.19-.19H22.45a.63.63,0,1,0,.32.38h1v2.89a.19.19,0,0,0,.19.19h1.45a.19.19,0,0,0,0-.38Zm-3.19-2.29a.24.24,0,1,1,.24-.24A.24.24,0,0,1,22.18,15.13Z"/><path d="M18.27,14.23a.61.61,0,0,0-.58.43H16.15a.19.19,0,0,0-.14.06l-1.07,1.14a.19.19,0,0,0,.27.26l1-1.08h1.45a.61.61,0,1,0,.58-.8Zm0,.85a.24.24,0,1,1,.24-.24A.24.24,0,0,1,18.27,15.08Z"/><path d="M18.27,16.62a.61.61,0,0,0-.58.43H15.08a.19.19,0,0,0,0,.38h2.61a.61.61,0,1,0,.58-.8Zm0,.85a.24.24,0,1,1,.24-.24A.24.24,0,0,1,18.27,17.47Z"/><path d="M18.88,12a.19.19,0,0,0-.19.19v1.19H17.32a.61.61,0,1,0,0,.38h1.56a.19.19,0,0,0,.19-.19V12.24A.19.19,0,0,0,18.88,12Zm-2.14,1.8a.24.24,0,1,1,.24-.24A.24.24,0,0,1,16.74,13.85Z"/><path d="M16.74,18.14a.61.61,0,0,0-.58.42l-1.09,0a.19.19,0,0,0,0,.38h0l1.08,0a.61.61,0,1,0,.58-.8Zm0,.85a.24.24,0,1,1,.24-.24A.24.24,0,0,1,16.74,19Z"/><line class="cls-1" x1="21.05" y1="18.75" x2="25.38" y2="18.75"/><path d="M25.38,18.57H21.19a.61.61,0,1,0,0,.38h4.19a.19.19,0,0,0,0-.38ZM20.61,19a.24.24,0,1,1,.24-.24A.24.24,0,0,1,20.61,19Z"/><path d="M25.29,12.49a.19.19,0,0,0-.27,0l-.8.68h-2a.61.61,0,1,0,0,.36h2a.19.19,0,0,0,.12,0l.86-.73A.19.19,0,0,0,25.29,12.49Zm-3.63,1.09a.24.24,0,1,1,.24-.24A.24.24,0,0,1,21.66,13.58Z"/></g></g></svg>