<svg xmlns="http://www.w3.org/2000/svg" viewBox="0 0 40 30.47"><title>gv3</title><g id="Layer_2" data-name="Layer 2"><g id="Layer_1-2" data-name="Layer 1"><path d="M0,0V30.47H40V0ZM17.48,3.39a1.3,1.3,0,0,1,1.3-1.3h2.47a1.3,1.3,0,0,1,1.3,1.3v.74a1.3,1.3,0,0,1-1.3,1.3H18.78a1.3,1.3,0,0,1-1.3-1.3Zm8.43,11.5a.38.38,0,0,1,0,.69L14.43,21.29a.38.38,0,0,1-.56-.34V9.52a.38.38,0,0,1,.56-.34ZM9.82,3.39a1.3,1.3,0,0,1,1.3-1.3h2.47a1.3,1.3,0,0,1,1.3,1.3v.74a1.3,1.3,0,0,1-1.3,1.3H11.11a1.3,1.3,0,0,1-1.3-1.3ZM7.19,27.07a1.3,1.3,0,0,1-1.3,1.3H3.42a1.3,1.3,0,0,1-1.3-1.3v-.74A1.3,1.3,0,0,1,3.42,25H5.89a1.3,1.3,0,0,1,1.3,1.3Zm0-22.94a1.3,1.3,0,0,1-1.3,1.3H3.45a1.3,1.3,0,0,1-1.3-1.3V3.39a1.3,1.3,0,0,1,1.3-1.3H5.91a1.3,1.3,0,0,1,1.3,1.3Zm7.64,22.94a1.3,1.3,0,0,1-1.3,1.3H11.09a1.3,1.3,0,0,1-1.3-1.3v-.74a1.3,1.3,0,0,1,1.3-1.3h2.47a1.3,1.3,0,0,1,1.3,1.3Zm7.67,0a1.3,1.3,0,0,1-1.3,1.3H18.75a1.3,1.3,0,0,1-1.3-1.3v-.74a1.3,1.3,0,0,1,1.3-1.3h2.47a1.3,1.3,0,0,1,1.3,1.3Zm7.67,0a1.3,1.3,0,0,1-1.3,1.3H26.42a1.3,1.3,0,0,1-1.3-1.3v-.74a1.3,1.3,0,0,1,1.3-1.3h2.47a1.3,1.3,0,0,1,1.3,1.3Zm0-22.94a1.3,1.3,0,0,1-1.3,1.3H26.44a1.3,1.3,0,0,1-1.3-1.3V3.39a1.3,1.3,0,0,1,1.3-1.3h2.47a1.3,1.3,0,0,1,1.3,1.3Zm7.64,22.94a1.3,1.3,0,0,1-1.3,1.3H34.09a1.3,1.3,0,0,1-1.3-1.3v-.74a1.3,1.3,0,0,1,1.3-1.3h2.47a1.3,1.3,0,0,1,1.3,1.3Zm0-22.94a1.3,1.3,0,0,1-1.3,1.3H34.11a1.3,1.3,0,0,1-1.3-1.3V3.39a1.3,1.3,0,0,1,1.3-1.3h2.47a1.3,1.3,0,0,1,1.3,1.3Z"/></g></g></svg>