<svg xmlns="http://www.w3.org/2000/svg" viewBox="0 0 40 31.23"><defs><style>.cls-1{fill:#fff;}</style></defs><title>gv4</title><g id="Layer_2" data-name="Layer 2"><g id="Layer_1-2" data-name="Layer 1"><rect class="cls-1" x="0.37" y="0.37" width="39.25" height="30.48" rx="1.6" ry="1.6"/><path d="M38,.75A1.22,1.22,0,0,1,39.25,2V29.26A1.22,1.22,0,0,1,38,30.48H2A1.22,1.22,0,0,1,.75,29.26V2A1.22,1.22,0,0,1,2,.75H38M38,0H2A2,2,0,0,0,0,2V29.26a2,2,0,0,0,2,2H38a2,2,0,0,0,2-2V2a2,2,0,0,0-2-2Z"/><rect x="32.79" y="25.42" width="5.06" height="3.33" rx="1.3" ry="1.3"/><rect x="32.81" y="2.48" width="5.06" height="3.33" rx="1.3" ry="1.3"/><rect x="17.46" y="25.42" width="5.06" height="3.33" rx="1.3" ry="1.3"/><rect x="17.48" y="2.48" width="5.06" height="3.33" rx="1.3" ry="1.3"/><path d="M25.92,15.27,14.43,9.56a.38.38,0,0,0-.56.34V21.33a.38.38,0,0,0,.56.34L25.92,16A.38.38,0,0,0,25.92,15.27Z"/><rect x="25.12" y="25.42" width="5.06" height="3.33" rx="1.3" ry="1.3"/><rect x="25.15" y="2.48" width="5.06" height="3.33" rx="1.3" ry="1.3"/><rect x="2.12" y="25.42" width="5.06" height="3.33" rx="1.3" ry="1.3"/><rect x="9.82" y="2.48" width="5.06" height="3.33" rx="1.3" ry="1.3"/><rect x="2.15" y="2.48" width="5.06" height="3.33" rx="1.3" ry="1.3"/><rect x="9.79" y="25.42" width="5.06" height="3.33" rx="1.3" ry="1.3"/></g></g></svg>