<svg xmlns="http://www.w3.org/2000/svg" viewBox="0 0 38.03 33.64"><defs><style>.cls-1{fill:#fff;}</style></defs><title>gv5</title><g id="Layer_2" data-name="Layer 2"><g id="Layer_1-2" data-name="Layer 1"><path d="M33.61,17.32l-4.17,1.42V17.41a4.9,4.9,0,0,0-4.9-4.9H22.62a6.36,6.36,0,1,0-3.08,0H9.91a6.36,6.36,0,1,0-3.08,0H4.9A4.9,4.9,0,0,0,0,17.41V28.74a4.9,4.9,0,0,0,4.9,4.9H24.54a4.9,4.9,0,0,0,4.9-4.9V27.41l4.17,1.42c2.19.74,4.42.09,4.42-1.65V19C38,17.23,35.8,16.58,33.61,17.32Z"/><rect class="cls-1" x="8.87" y="18.84" width="12.61" height="7.27" rx="1.89" ry="1.89"/></g></g></svg>